<?xml version="1.0" standalone="no"?>
 <!DOCTYPE svg PUBLIC "-//W3C//DTD SVG 1.1//EN" 
 "http://www.w3.org/Graphics/SVG/1.1/DTD/svg11.dtd"> 
<svg xmlns="http://www.w3.org/2000/svg" version="1.1" 
    width="29.7002cm" height="21.0007cm" viewBox="0 0 116930 82680 ">
<title>SVG Picture created as eyes.svg date 2019/12/05 00:34:25 </title>
  <desc>Picture generated by Eeschema-SVG </desc>
<g style="fill:#000000; fill-opacity:1;stroke:#000000; stroke-opacity:1;
stroke-linecap:round; stroke-linejoin:round; "
 transform="translate(0 0) scale(1 1)">
</g>
<g style="fill:#000000; fill-opacity:0.0; 
stroke:#000000; stroke-width:-10; stroke-opacity:1; 
stroke-linecap:round; stroke-linejoin:round;">
</g>
<g style="fill:#000000; fill-opacity:0.0; 
stroke:#000000; stroke-width:100; stroke-opacity:1; 
stroke-linecap:round; stroke-linejoin:round;">
</g>
<g style="fill:#000000; fill-opacity:0.0; 
stroke:#000000; stroke-width:60; stroke-opacity:1; 
stroke-linecap:round; stroke-linejoin:round;">
<rect x="69690" y="65360" width="42520" height="12600" rx="0" />
</g>
<g style="fill:#000000; fill-opacity:0.0; 
stroke:#000000; stroke-width:100; stroke-opacity:1; 
stroke-linecap:round; stroke-linejoin:round;">
</g>
<g style="fill:#000000; fill-opacity:0.0; 
stroke:#000000; stroke-width:60; stroke-opacity:1; 
stroke-linecap:round; stroke-linejoin:round;">
<rect x="3940" y="3940" width="109050" height="74800" rx="0" />
</g>
<g style="fill:#000000; fill-opacity:0.0; 
stroke:#000000; stroke-width:100; stroke-opacity:1; 
stroke-linecap:round; stroke-linejoin:round;">
</g>
<g style="fill:#000000; fill-opacity:0.0; 
stroke:#000000; stroke-width:60; stroke-opacity:1; 
stroke-linecap:round; stroke-linejoin:round;">
<rect x="4720" y="4720" width="107490" height="73240" rx="0" />
</g>
<g style="fill:#000000; fill-opacity:0.0; 
stroke:#000000; stroke-width:100; stroke-opacity:1; 
stroke-linecap:round; stroke-linejoin:round;">
</g>
<g style="fill:#000000; fill-opacity:0.0; 
stroke:#000000; stroke-width:60; stroke-opacity:1; 
stroke-linecap:round; stroke-linejoin:round;">
<path d="M23620 4720
L23620 3940
" />
</g>
<g style="fill:#000000; fill-opacity:0.0; 
stroke:#000000; stroke-width:100; stroke-opacity:1; 
stroke-linecap:round; stroke-linejoin:round;">
</g>
<g style="fill:#000000; fill-opacity:0.0; 
stroke:#000000; stroke-width:60; stroke-opacity:1; 
stroke-linecap:round; stroke-linejoin:round;">
<path d="M43310 4720
L43310 3940
" />
</g>
<g style="fill:#000000; fill-opacity:0.0; 
stroke:#000000; stroke-width:100; stroke-opacity:1; 
stroke-linecap:round; stroke-linejoin:round;">
</g>
<g style="fill:#000000; fill-opacity:0.0; 
stroke:#000000; stroke-width:60; stroke-opacity:1; 
stroke-linecap:round; stroke-linejoin:round;">
<path d="M62990 4720
L62990 3940
" />
</g>
<g style="fill:#000000; fill-opacity:0.0; 
stroke:#000000; stroke-width:100; stroke-opacity:1; 
stroke-linecap:round; stroke-linejoin:round;">
</g>
<g style="fill:#000000; fill-opacity:0.0; 
stroke:#000000; stroke-width:60; stroke-opacity:1; 
stroke-linecap:round; stroke-linejoin:round;">
<path d="M82680 4720
L82680 3940
" />
</g>
<g style="fill:#000000; fill-opacity:0.0; 
stroke:#000000; stroke-width:100; stroke-opacity:1; 
stroke-linecap:round; stroke-linejoin:round;">
</g>
<g style="fill:#000000; fill-opacity:0.0; 
stroke:#000000; stroke-width:60; stroke-opacity:1; 
stroke-linecap:round; stroke-linejoin:round;">
<path d="M102360 4720
L102360 3940
" />
</g>
<g style="fill:#000000; fill-opacity:0.0; 
stroke:#000000; stroke-width:100; stroke-opacity:1; 
stroke-linecap:round; stroke-linejoin:round;">
</g>
<g style="fill:#000000; fill-opacity:0.0; 
stroke:#000000; stroke-width:60; stroke-opacity:1; 
stroke-linecap:round; stroke-linejoin:round;">
<text x="13780" y="4580"
textLength="500" font-size="680" lengthAdjust="spacingAndGlyphs"
text-anchor="start" opacity="0">1</text>
<path d="M14190 4560
L13900 4560
" />
<path d="M14050 4560
L14050 4050
L14000 4120
L13950 4170
L13900 4190
" />
</g>
<g style="fill:#000000; fill-opacity:0.0; 
stroke:#000000; stroke-width:100; stroke-opacity:1; 
stroke-linecap:round; stroke-linejoin:round;">
</g>
<g style="fill:#000000; fill-opacity:0.0; 
stroke:#000000; stroke-width:60; stroke-opacity:1; 
stroke-linecap:round; stroke-linejoin:round;">
<text x="33460" y="4580"
textLength="550" font-size="680" lengthAdjust="spacingAndGlyphs"
text-anchor="start" opacity="0">2</text>
<path d="M33580 4090
L33610 4070
L33660 4050
L33780 4050
L33830 4070
L33850 4090
L33870 4140
L33870 4190
L33850 4260
L33560 4560
L33870 4560
" />
</g>
<g style="fill:#000000; fill-opacity:0.0; 
stroke:#000000; stroke-width:100; stroke-opacity:1; 
stroke-linecap:round; stroke-linejoin:round;">
</g>
<g style="fill:#000000; fill-opacity:0.0; 
stroke:#000000; stroke-width:60; stroke-opacity:1; 
stroke-linecap:round; stroke-linejoin:round;">
<text x="53150" y="4580"
textLength="550" font-size="680" lengthAdjust="spacingAndGlyphs"
text-anchor="start" opacity="0">3</text>
<path d="M53250 4050
L53560 4050
L53390 4240
L53470 4240
L53520 4260
L53540 4290
L53560 4340
L53560 4460
L53540 4510
L53520 4530
L53470 4560
L53320 4560
L53270 4530
L53250 4510
" />
</g>
<g style="fill:#000000; fill-opacity:0.0; 
stroke:#000000; stroke-width:100; stroke-opacity:1; 
stroke-linecap:round; stroke-linejoin:round;">
</g>
<g style="fill:#000000; fill-opacity:0.0; 
stroke:#000000; stroke-width:60; stroke-opacity:1; 
stroke-linecap:round; stroke-linejoin:round;">
<text x="72830" y="4580"
textLength="550" font-size="680" lengthAdjust="spacingAndGlyphs"
text-anchor="start" opacity="0">4</text>
<path d="M73200 4220
L73200 4560
" />
<path d="M73070 4020
L72950 4390
L73270 4390
" />
</g>
<g style="fill:#000000; fill-opacity:0.0; 
stroke:#000000; stroke-width:100; stroke-opacity:1; 
stroke-linecap:round; stroke-linejoin:round;">
</g>
<g style="fill:#000000; fill-opacity:0.0; 
stroke:#000000; stroke-width:60; stroke-opacity:1; 
stroke-linecap:round; stroke-linejoin:round;">
<text x="92520" y="4580"
textLength="550" font-size="680" lengthAdjust="spacingAndGlyphs"
text-anchor="start" opacity="0">5</text>
<path d="M92910 4050
L92670 4050
L92640 4290
L92670 4260
L92720 4240
L92840 4240
L92890 4260
L92910 4290
L92930 4340
L92930 4460
L92910 4510
L92890 4530
L92840 4560
L92720 4560
L92670 4530
L92640 4510
" />
</g>
<g style="fill:#000000; fill-opacity:0.0; 
stroke:#000000; stroke-width:100; stroke-opacity:1; 
stroke-linecap:round; stroke-linejoin:round;">
</g>
<g style="fill:#000000; fill-opacity:0.0; 
stroke:#000000; stroke-width:60; stroke-opacity:1; 
stroke-linecap:round; stroke-linejoin:round;">
<text x="112200" y="4580"
textLength="550" font-size="680" lengthAdjust="spacingAndGlyphs"
text-anchor="start" opacity="0">6</text>
<path d="M112570 4050
L112470 4050
L112420 4070
L112400 4090
L112350 4170
L112320 4260
L112320 4460
L112350 4510
L112370 4530
L112420 4560
L112520 4560
L112570 4530
L112590 4510
L112610 4460
L112610 4340
L112590 4290
L112570 4260
L112520 4240
L112420 4240
L112370 4260
L112350 4290
L112320 4340
" />
</g>
<g style="fill:#000000; fill-opacity:0.0; 
stroke:#000000; stroke-width:100; stroke-opacity:1; 
stroke-linecap:round; stroke-linejoin:round;">
</g>
<g style="fill:#000000; fill-opacity:0.0; 
stroke:#000000; stroke-width:60; stroke-opacity:1; 
stroke-linecap:round; stroke-linejoin:round;">
<path d="M23620 77960
L23620 78740
" />
</g>
<g style="fill:#000000; fill-opacity:0.0; 
stroke:#000000; stroke-width:100; stroke-opacity:1; 
stroke-linecap:round; stroke-linejoin:round;">
</g>
<g style="fill:#000000; fill-opacity:0.0; 
stroke:#000000; stroke-width:60; stroke-opacity:1; 
stroke-linecap:round; stroke-linejoin:round;">
<path d="M43310 77960
L43310 78740
" />
</g>
<g style="fill:#000000; fill-opacity:0.0; 
stroke:#000000; stroke-width:100; stroke-opacity:1; 
stroke-linecap:round; stroke-linejoin:round;">
</g>
<g style="fill:#000000; fill-opacity:0.0; 
stroke:#000000; stroke-width:60; stroke-opacity:1; 
stroke-linecap:round; stroke-linejoin:round;">
<path d="M62990 77960
L62990 78740
" />
</g>
<g style="fill:#000000; fill-opacity:0.0; 
stroke:#000000; stroke-width:100; stroke-opacity:1; 
stroke-linecap:round; stroke-linejoin:round;">
</g>
<g style="fill:#000000; fill-opacity:0.0; 
stroke:#000000; stroke-width:60; stroke-opacity:1; 
stroke-linecap:round; stroke-linejoin:round;">
<path d="M82680 77960
L82680 78740
" />
</g>
<g style="fill:#000000; fill-opacity:0.0; 
stroke:#000000; stroke-width:100; stroke-opacity:1; 
stroke-linecap:round; stroke-linejoin:round;">
</g>
<g style="fill:#000000; fill-opacity:0.0; 
stroke:#000000; stroke-width:60; stroke-opacity:1; 
stroke-linecap:round; stroke-linejoin:round;">
<path d="M102360 77960
L102360 78740
" />
</g>
<g style="fill:#000000; fill-opacity:0.0; 
stroke:#000000; stroke-width:100; stroke-opacity:1; 
stroke-linecap:round; stroke-linejoin:round;">
</g>
<g style="fill:#000000; fill-opacity:0.0; 
stroke:#000000; stroke-width:60; stroke-opacity:1; 
stroke-linecap:round; stroke-linejoin:round;">
<text x="13780" y="78600"
textLength="550" font-size="680" lengthAdjust="spacingAndGlyphs"
text-anchor="start" opacity="0">1</text>
<path d="M14190 78580
L13900 78580
" />
<path d="M14050 78580
L14050 78070
L14000 78140
L13950 78190
L13900 78210
" />
</g>
<g style="fill:#000000; fill-opacity:0.0; 
stroke:#000000; stroke-width:100; stroke-opacity:1; 
stroke-linecap:round; stroke-linejoin:round;">
</g>
<g style="fill:#000000; fill-opacity:0.0; 
stroke:#000000; stroke-width:60; stroke-opacity:1; 
stroke-linecap:round; stroke-linejoin:round;">
<text x="33460" y="78600"
textLength="550" font-size="680" lengthAdjust="spacingAndGlyphs"
text-anchor="start" opacity="0">2</text>
<path d="M33580 78110
L33610 78090
L33660 78070
L33780 78070
L33830 78090
L33850 78110
L33870 78160
L33870 78210
L33850 78280
L33560 78580
L33870 78580
" />
</g>
<g style="fill:#000000; fill-opacity:0.0; 
stroke:#000000; stroke-width:100; stroke-opacity:1; 
stroke-linecap:round; stroke-linejoin:round;">
</g>
<g style="fill:#000000; fill-opacity:0.0; 
stroke:#000000; stroke-width:60; stroke-opacity:1; 
stroke-linecap:round; stroke-linejoin:round;">
<text x="53150" y="78600"
textLength="550" font-size="680" lengthAdjust="spacingAndGlyphs"
text-anchor="start" opacity="0">3</text>
<path d="M53250 78070
L53560 78070
L53390 78260
L53470 78260
L53520 78280
L53540 78310
L53560 78360
L53560 78480
L53540 78530
L53520 78550
L53470 78580
L53320 78580
L53270 78550
L53250 78530
" />
</g>
<g style="fill:#000000; fill-opacity:0.0; 
stroke:#000000; stroke-width:100; stroke-opacity:1; 
stroke-linecap:round; stroke-linejoin:round;">
</g>
<g style="fill:#000000; fill-opacity:0.0; 
stroke:#000000; stroke-width:60; stroke-opacity:1; 
stroke-linecap:round; stroke-linejoin:round;">
<text x="72830" y="78600"
textLength="550" font-size="680" lengthAdjust="spacingAndGlyphs"
text-anchor="start" opacity="0">4</text>
<path d="M73200 78240
L73200 78580
" />
<path d="M73070 78040
L72950 78410
L73270 78410
" />
</g>
<g style="fill:#000000; fill-opacity:0.0; 
stroke:#000000; stroke-width:100; stroke-opacity:1; 
stroke-linecap:round; stroke-linejoin:round;">
</g>
<g style="fill:#000000; fill-opacity:0.0; 
stroke:#000000; stroke-width:60; stroke-opacity:1; 
stroke-linecap:round; stroke-linejoin:round;">
<text x="92520" y="78600"
textLength="550" font-size="680" lengthAdjust="spacingAndGlyphs"
text-anchor="start" opacity="0">5</text>
<path d="M92910 78070
L92670 78070
L92640 78310
L92670 78280
L92720 78260
L92840 78260
L92890 78280
L92910 78310
L92930 78360
L92930 78480
L92910 78530
L92890 78550
L92840 78580
L92720 78580
L92670 78550
L92640 78530
" />
</g>
<g style="fill:#000000; fill-opacity:0.0; 
stroke:#000000; stroke-width:100; stroke-opacity:1; 
stroke-linecap:round; stroke-linejoin:round;">
</g>
<g style="fill:#000000; fill-opacity:0.0; 
stroke:#000000; stroke-width:60; stroke-opacity:1; 
stroke-linecap:round; stroke-linejoin:round;">
<text x="112200" y="78600"
textLength="550" font-size="680" lengthAdjust="spacingAndGlyphs"
text-anchor="start" opacity="0">6</text>
<path d="M112570 78070
L112470 78070
L112420 78090
L112400 78110
L112350 78190
L112320 78280
L112320 78480
L112350 78530
L112370 78550
L112420 78580
L112520 78580
L112570 78550
L112590 78530
L112610 78480
L112610 78360
L112590 78310
L112570 78280
L112520 78260
L112420 78260
L112370 78280
L112350 78310
L112320 78360
" />
</g>
<g style="fill:#000000; fill-opacity:0.0; 
stroke:#000000; stroke-width:100; stroke-opacity:1; 
stroke-linecap:round; stroke-linejoin:round;">
</g>
<g style="fill:#000000; fill-opacity:0.0; 
stroke:#000000; stroke-width:60; stroke-opacity:1; 
stroke-linecap:round; stroke-linejoin:round;">
<path d="M3940 23620
L4720 23620
" />
</g>
<g style="fill:#000000; fill-opacity:0.0; 
stroke:#000000; stroke-width:100; stroke-opacity:1; 
stroke-linecap:round; stroke-linejoin:round;">
</g>
<g style="fill:#000000; fill-opacity:0.0; 
stroke:#000000; stroke-width:60; stroke-opacity:1; 
stroke-linecap:round; stroke-linejoin:round;">
<path d="M3940 43310
L4720 43310
" />
</g>
<g style="fill:#000000; fill-opacity:0.0; 
stroke:#000000; stroke-width:100; stroke-opacity:1; 
stroke-linecap:round; stroke-linejoin:round;">
</g>
<g style="fill:#000000; fill-opacity:0.0; 
stroke:#000000; stroke-width:60; stroke-opacity:1; 
stroke-linecap:round; stroke-linejoin:round;">
<path d="M3940 62990
L4720 62990
" />
</g>
<g style="fill:#000000; fill-opacity:0.0; 
stroke:#000000; stroke-width:100; stroke-opacity:1; 
stroke-linecap:round; stroke-linejoin:round;">
</g>
<g style="fill:#000000; fill-opacity:0.0; 
stroke:#000000; stroke-width:60; stroke-opacity:1; 
stroke-linecap:round; stroke-linejoin:round;">
<text x="4330" y="14030"
textLength="500" font-size="680" lengthAdjust="spacingAndGlyphs"
text-anchor="middle" opacity="0">A</text>
<path d="M4200 13860
L4450 13860
" />
<path d="M4160 14010
L4330 13500
L4500 14010
" />
</g>
<g style="fill:#000000; fill-opacity:0.0; 
stroke:#000000; stroke-width:100; stroke-opacity:1; 
stroke-linecap:round; stroke-linejoin:round;">
</g>
<g style="fill:#000000; fill-opacity:0.0; 
stroke:#000000; stroke-width:60; stroke-opacity:1; 
stroke-linecap:round; stroke-linejoin:round;">
<text x="4330" y="33710"
textLength="570" font-size="680" lengthAdjust="spacingAndGlyphs"
text-anchor="middle" opacity="0">B</text>
<path d="M4360 33420
L4430 33440
L4460 33470
L4480 33520
L4480 33590
L4460 33640
L4430 33660
L4390 33690
L4190 33690
L4190 33180
L4360 33180
L4410 33200
L4430 33220
L4460 33270
L4460 33320
L4430 33370
L4410 33390
L4360 33420
L4190 33420
" />
</g>
<g style="fill:#000000; fill-opacity:0.0; 
stroke:#000000; stroke-width:100; stroke-opacity:1; 
stroke-linecap:round; stroke-linejoin:round;">
</g>
<g style="fill:#000000; fill-opacity:0.0; 
stroke:#000000; stroke-width:60; stroke-opacity:1; 
stroke-linecap:round; stroke-linejoin:round;">
<text x="4330" y="53400"
textLength="570" font-size="680" lengthAdjust="spacingAndGlyphs"
text-anchor="middle" opacity="0">C</text>
<path d="M4480 53330
L4460 53350
L4390 53380
L4340 53380
L4260 53350
L4220 53300
L4190 53250
L4170 53160
L4170 53080
L4190 52990
L4220 52940
L4260 52890
L4340 52870
L4390 52870
L4460 52890
L4480 52910
" />
</g>
<g style="fill:#000000; fill-opacity:0.0; 
stroke:#000000; stroke-width:100; stroke-opacity:1; 
stroke-linecap:round; stroke-linejoin:round;">
</g>
<g style="fill:#000000; fill-opacity:0.0; 
stroke:#000000; stroke-width:60; stroke-opacity:1; 
stroke-linecap:round; stroke-linejoin:round;">
<text x="4330" y="73080"
textLength="570" font-size="680" lengthAdjust="spacingAndGlyphs"
text-anchor="middle" opacity="0">D</text>
<path d="M4190 73060
L4190 72550
L4310 72550
L4390 72570
L4430 72620
L4460 72670
L4480 72760
L4480 72840
L4460 72930
L4430 72980
L4390 73030
L4310 73060
L4190 73060
" />
</g>
<g style="fill:#000000; fill-opacity:0.0; 
stroke:#000000; stroke-width:100; stroke-opacity:1; 
stroke-linecap:round; stroke-linejoin:round;">
</g>
<g style="fill:#000000; fill-opacity:0.0; 
stroke:#000000; stroke-width:60; stroke-opacity:1; 
stroke-linecap:round; stroke-linejoin:round;">
<path d="M112990 23620
L112210 23620
" />
</g>
<g style="fill:#000000; fill-opacity:0.0; 
stroke:#000000; stroke-width:100; stroke-opacity:1; 
stroke-linecap:round; stroke-linejoin:round;">
</g>
<g style="fill:#000000; fill-opacity:0.0; 
stroke:#000000; stroke-width:60; stroke-opacity:1; 
stroke-linecap:round; stroke-linejoin:round;">
<path d="M112990 43310
L112210 43310
" />
</g>
<g style="fill:#000000; fill-opacity:0.0; 
stroke:#000000; stroke-width:100; stroke-opacity:1; 
stroke-linecap:round; stroke-linejoin:round;">
</g>
<g style="fill:#000000; fill-opacity:0.0; 
stroke:#000000; stroke-width:60; stroke-opacity:1; 
stroke-linecap:round; stroke-linejoin:round;">
<path d="M112990 62990
L112210 62990
" />
</g>
<g style="fill:#000000; fill-opacity:0.0; 
stroke:#000000; stroke-width:100; stroke-opacity:1; 
stroke-linecap:round; stroke-linejoin:round;">
</g>
<g style="fill:#000000; fill-opacity:0.0; 
stroke:#000000; stroke-width:60; stroke-opacity:1; 
stroke-linecap:round; stroke-linejoin:round;">
<text x="112600" y="14030"
textLength="500" font-size="680" lengthAdjust="spacingAndGlyphs"
text-anchor="middle" opacity="0">A</text>
<path d="M112470 13860
L112720 13860
" />
<path d="M112430 14010
L112600 13500
L112770 14010
" />
</g>
<g style="fill:#000000; fill-opacity:0.0; 
stroke:#000000; stroke-width:100; stroke-opacity:1; 
stroke-linecap:round; stroke-linejoin:round;">
</g>
<g style="fill:#000000; fill-opacity:0.0; 
stroke:#000000; stroke-width:60; stroke-opacity:1; 
stroke-linecap:round; stroke-linejoin:round;">
<text x="112600" y="33710"
textLength="570" font-size="680" lengthAdjust="spacingAndGlyphs"
text-anchor="middle" opacity="0">B</text>
<path d="M112630 33420
L112700 33440
L112730 33470
L112750 33520
L112750 33590
L112730 33640
L112700 33660
L112660 33690
L112460 33690
L112460 33180
L112630 33180
L112680 33200
L112700 33220
L112730 33270
L112730 33320
L112700 33370
L112680 33390
L112630 33420
L112460 33420
" />
</g>
<g style="fill:#000000; fill-opacity:0.0; 
stroke:#000000; stroke-width:100; stroke-opacity:1; 
stroke-linecap:round; stroke-linejoin:round;">
</g>
<g style="fill:#000000; fill-opacity:0.0; 
stroke:#000000; stroke-width:60; stroke-opacity:1; 
stroke-linecap:round; stroke-linejoin:round;">
<text x="112600" y="53400"
textLength="570" font-size="680" lengthAdjust="spacingAndGlyphs"
text-anchor="middle" opacity="0">C</text>
<path d="M112750 53330
L112730 53350
L112660 53380
L112610 53380
L112530 53350
L112490 53300
L112460 53250
L112440 53160
L112440 53080
L112460 52990
L112490 52940
L112530 52890
L112610 52870
L112660 52870
L112730 52890
L112750 52910
" />
</g>
<g style="fill:#000000; fill-opacity:0.0; 
stroke:#000000; stroke-width:100; stroke-opacity:1; 
stroke-linecap:round; stroke-linejoin:round;">
</g>
<g style="fill:#000000; fill-opacity:0.0; 
stroke:#000000; stroke-width:60; stroke-opacity:1; 
stroke-linecap:round; stroke-linejoin:round;">
<text x="112600" y="73080"
textLength="570" font-size="680" lengthAdjust="spacingAndGlyphs"
text-anchor="middle" opacity="0">D</text>
<path d="M112460 73060
L112460 72550
L112580 72550
L112660 72570
L112700 72620
L112730 72670
L112750 72760
L112750 72840
L112730 72930
L112700 72980
L112660 73030
L112580 73060
L112460 73060
" />
</g>
<g style="fill:#000000; fill-opacity:0.0; 
stroke:#000000; stroke-width:100; stroke-opacity:1; 
stroke-linecap:round; stroke-linejoin:round;">
</g>
<g style="fill:#000000; fill-opacity:0.0; 
stroke:#000000; stroke-width:60; stroke-opacity:1; 
stroke-linecap:round; stroke-linejoin:round;">
<text x="78740" y="76320"
textLength="2760" font-size="780" lengthAdjust="spacingAndGlyphs"
text-anchor="start" opacity="0">Date: </text>
<path d="M78910 76290
L78910 75700
L79050 75700
L79130 75730
L79190 75790
L79210 75840
L79240 75950
L79240 76040
L79210 76150
L79190 76210
L79130 76260
L79050 76290
L78910 76290
" />
<path d="M79750 76290
L79750 75980
L79720 75930
L79660 75900
L79550 75900
L79500 75930
" />
<path d="M79750 76260
L79690 76290
L79550 76290
L79500 76260
L79470 76210
L79470 76150
L79500 76100
L79550 76070
L79690 76070
L79750 76040
" />
<path d="M79950 75900
L80170 75900
" />
<path d="M80030 75700
L80030 76210
L80060 76260
L80110 76290
L80170 76290
" />
<path d="M80590 76260
L80540 76290
L80420 76290
L80370 76260
L80340 76210
L80340 75980
L80370 75930
L80420 75900
L80540 75900
L80590 75930
L80620 75980
L80620 76040
L80340 76100
" />
<path d="M80870 76240
L80900 76260
L80870 76290
L80840 76260
L80870 76240
L80870 76290
" />
<path d="M80870 75930
L80900 75950
L80870 75980
L80840 75950
L80870 75930
L80870 75980
" />
</g>
<g style="fill:#000000; fill-opacity:0.0; 
stroke:#000000; stroke-width:100; stroke-opacity:1; 
stroke-linecap:round; stroke-linejoin:round;">
</g>
<g style="fill:#000000; fill-opacity:0.0; 
stroke:#000000; stroke-width:60; stroke-opacity:1; 
stroke-linecap:round; stroke-linejoin:round;">
<path d="M69690 76580
L112210 76580
" />
</g>
<g style="fill:#000000; fill-opacity:0.0; 
stroke:#000000; stroke-width:100; stroke-opacity:1; 
stroke-linecap:round; stroke-linejoin:round;">
</g>
<g style="fill:#000000; fill-opacity:0.0; 
stroke:#000000; stroke-width:60; stroke-opacity:1; 
stroke-linecap:round; stroke-linejoin:round;">
<text x="70080" y="77420"
textLength="13520" font-size="780" lengthAdjust="spacingAndGlyphs"
text-anchor="start" opacity="0">KiCad E.D.A.  kicad (5.1.5)-2</text>
<path d="M70250 77390
L70250 76800
" />
<path d="M70580 77390
L70330 77050
" />
<path d="M70580 76800
L70250 77140
" />
<path d="M70840 77390
L70840 77000
" />
<path d="M70840 76800
L70810 76830
L70840 76860
L70860 76830
L70840 76800
L70840 76860
" />
<path d="M71450 77340
L71430 77360
L71340 77390
L71290 77390
L71200 77360
L71140 77310
L71120 77250
L71090 77140
L71090 77050
L71120 76940
L71140 76890
L71200 76830
L71290 76800
L71340 76800
L71430 76830
L71450 76860
" />
<path d="M71960 77390
L71960 77080
L71930 77030
L71880 77000
L71760 77000
L71710 77030
" />
<path d="M71960 77360
L71900 77390
L71760 77390
L71710 77360
L71680 77310
L71680 77250
L71710 77200
L71760 77170
L71900 77170
L71960 77140
" />
<path d="M72490 77390
L72490 76800
" />
<path d="M72490 77360
L72440 77390
L72320 77390
L72270 77360
L72240 77340
L72210 77280
L72210 77110
L72240 77050
L72270 77030
L72320 77000
L72440 77000
L72490 77030
" />
<path d="M73220 77080
L73420 77080
" />
<path d="M73500 77390
L73220 77390
L73220 76800
L73500 76800
" />
<path d="M73760 77340
L73790 77360
L73760 77390
L73730 77360
L73760 77340
L73760 77390
" />
<path d="M74040 77390
L74040 76800
L74180 76800
L74260 76830
L74320 76890
L74350 76940
L74380 77050
L74380 77140
L74350 77250
L74320 77310
L74260 77360
L74180 77390
L74040 77390
" />
<path d="M74630 77340
L74660 77360
L74630 77390
L74600 77360
L74630 77340
L74630 77390
" />
<path d="M74880 77220
L75160 77220
" />
<path d="M74830 77390
L75020 76800
L75220 77390
" />
<path d="M75420 77340
L75440 77360
L75420 77390
L75390 77360
L75420 77340
L75420 77390
" />
<path d="M76600 77390
L76600 76800
" />
<path d="M76650 77170
L76820 77390
" />
<path d="M76820 77000
L76600 77220
" />
<path d="M77070 77390
L77070 77000
" />
<path d="M77070 76800
L77040 76830
L77070 76860
L77100 76830
L77070 76800
L77070 76860
" />
<path d="M77610 77360
L77550 77390
L77440 77390
L77380 77360
L77350 77340
L77330 77280
L77330 77110
L77350 77050
L77380 77030
L77440 77000
L77550 77000
L77610 77030
" />
<path d="M78110 77390
L78110 77080
L78080 77030
L78030 77000
L77920 77000
L77860 77030
" />
<path d="M78110 77360
L78060 77390
L77920 77390
L77860 77360
L77830 77310
L77830 77250
L77860 77200
L77920 77170
L78060 77170
L78110 77140
" />
<path d="M78650 77390
L78650 76800
" />
<path d="M78650 77360
L78590 77390
L78480 77390
L78420 77360
L78390 77340
L78370 77280
L78370 77110
L78390 77050
L78420 77030
L78480 77000
L78590 77000
L78650 77030
" />
<path d="M79550 77620
L79520 77590
L79460 77500
L79430 77450
L79400 77360
L79380 77220
L79380 77110
L79400 76970
L79430 76890
L79460 76830
L79520 76750
L79550 76720
" />
<path d="M80050 76800
L79770 76800
L79740 77080
L79770 77050
L79830 77030
L79970 77030
L80020 77050
L80050 77080
L80080 77140
L80080 77280
L80050 77340
L80020 77360
L79970 77390
L79830 77390
L79770 77360
L79740 77340
" />
<path d="M80330 77340
L80360 77360
L80330 77390
L80300 77360
L80330 77340
L80330 77390
" />
<path d="M80920 77390
L80580 77390
" />
<path d="M80750 77390
L80750 76800
L80700 76890
L80640 76940
L80580 76970
" />
<path d="M81170 77340
L81200 77360
L81170 77390
L81150 77360
L81170 77340
L81170 77390
" />
<path d="M81740 76800
L81460 76800
L81430 77080
L81460 77050
L81510 77030
L81650 77030
L81710 77050
L81740 77080
L81760 77140
L81760 77280
L81740 77340
L81710 77360
L81650 77390
L81510 77390
L81460 77360
L81430 77340
" />
<path d="M81960 77620
L81990 77590
L82050 77500
L82070 77450
L82100 77360
L82130 77220
L82130 77110
L82100 76970
L82070 76890
L82050 76830
L81990 76750
L81960 76720
" />
<path d="M82410 77170
L82860 77170
" />
<path d="M83110 76860
L83140 76830
L83200 76800
L83340 76800
L83390 76830
L83420 76860
L83450 76910
L83450 76970
L83420 77050
L83090 77390
L83450 77390
" />
</g>
<g style="fill:#000000; fill-opacity:0.0; 
stroke:#000000; stroke-width:100; stroke-opacity:1; 
stroke-linecap:round; stroke-linejoin:round;">
</g>
<g style="fill:#000000; fill-opacity:0.0; 
stroke:#000000; stroke-width:60; stroke-opacity:1; 
stroke-linecap:round; stroke-linejoin:round;">
<path d="M69690 75400
L112210 75400
" />
</g>
<g style="fill:#000000; fill-opacity:0.0; 
stroke:#000000; stroke-width:100; stroke-opacity:1; 
stroke-linecap:round; stroke-linejoin:round;">
</g>
<g style="fill:#000000; fill-opacity:0.0; 
stroke:#000000; stroke-width:120; stroke-opacity:1; 
stroke-linecap:round; stroke-linejoin:round;">
<text x="103540" y="76320"
textLength="2340" font-size="780" lengthAdjust="spacingAndGlyphs"
text-anchor="start" opacity="0">Rev: </text>
<path d="M104090 76290
L103890 76010
" />
<path d="M103750 76290
L103750 75700
L103980 75700
L104030 75730
L104060 75760
L104090 75810
L104090 75900
L104060 75950
L104030 75980
L103980 76010
L103750 76010
" />
<path d="M104570 76260
L104510 76290
L104400 76290
L104340 76260
L104320 76210
L104320 75980
L104340 75930
L104400 75900
L104510 75900
L104570 75930
L104600 75980
L104600 76040
L104320 76100
" />
<path d="M104790 75900
L104930 76290
L105070 75900
" />
<path d="M105300 76240
L105330 76260
L105300 76290
L105270 76260
L105300 76240
L105300 76290
" />
<path d="M105300 75930
L105330 75950
L105300 75980
L105270 75950
L105300 75930
L105300 75980
" />
</g>
<g style="fill:#000000; fill-opacity:0.0; 
stroke:#000000; stroke-width:100; stroke-opacity:1; 
stroke-linecap:round; stroke-linejoin:round;">
</g>
<g style="fill:#000000; fill-opacity:0.0; 
stroke:#000000; stroke-width:60; stroke-opacity:1; 
stroke-linecap:round; stroke-linejoin:round;">
<text x="70080" y="76320"
textLength="3780" font-size="780" lengthAdjust="spacingAndGlyphs"
text-anchor="start" opacity="0">Size: A4</text>
<path d="M70220 76260
L70300 76290
L70440 76290
L70500 76260
L70530 76240
L70550 76180
L70550 76120
L70530 76070
L70500 76040
L70440 76010
L70330 75980
L70270 75950
L70250 75930
L70220 75870
L70220 75810
L70250 75760
L70270 75730
L70330 75700
L70470 75700
L70550 75730
" />
<path d="M70810 76290
L70810 75900
" />
<path d="M70810 75700
L70780 75730
L70810 75760
L70840 75730
L70810 75700
L70810 75760
" />
<path d="M71030 75900
L71340 75900
L71030 76290
L71340 76290
" />
<path d="M71790 76260
L71730 76290
L71620 76290
L71570 76260
L71540 76210
L71540 75980
L71570 75930
L71620 75900
L71730 75900
L71790 75930
L71820 75980
L71820 76040
L71540 76100
" />
<path d="M72070 76240
L72100 76260
L72070 76290
L72040 76260
L72070 76240
L72070 76290
" />
<path d="M72070 75930
L72100 75950
L72070 75980
L72040 75950
L72070 75930
L72070 75980
" />
<path d="M72770 76120
L73060 76120
" />
<path d="M72720 76290
L72910 75700
L73110 76290
" />
<path d="M73560 75900
L73560 76290
" />
<path d="M73420 75670
L73280 76100
L73650 76100
" />
</g>
<g style="fill:#000000; fill-opacity:0.0; 
stroke:#000000; stroke-width:100; stroke-opacity:1; 
stroke-linecap:round; stroke-linejoin:round;">
</g>
<g style="fill:#000000; fill-opacity:0.0; 
stroke:#000000; stroke-width:60; stroke-opacity:1; 
stroke-linecap:round; stroke-linejoin:round;">
<text x="103540" y="77420"
textLength="3350" font-size="780" lengthAdjust="spacingAndGlyphs"
text-anchor="start" opacity="0">Id: 1/1</text>
<path d="M103710 77390
L103710 76800
" />
<path d="M104240 77390
L104240 76800
" />
<path d="M104240 77360
L104180 77390
L104070 77390
L104010 77360
L103990 77340
L103960 77280
L103960 77110
L103990 77050
L104010 77030
L104070 77000
L104180 77000
L104240 77030
" />
<path d="M104520 77340
L104550 77360
L104520 77390
L104490 77360
L104520 77340
L104520 77390
" />
<path d="M104520 77030
L104550 77050
L104520 77080
L104490 77050
L104520 77030
L104520 77080
" />
<path d="M105560 77390
L105220 77390
" />
<path d="M105390 77390
L105390 76800
L105340 76890
L105280 76940
L105220 76970
" />
<path d="M106230 76770
L105730 77530
" />
<path d="M106740 77390
L106400 77390
" />
<path d="M106570 77390
L106570 76800
L106520 76890
L106460 76940
L106400 76970
" />
</g>
<g style="fill:#000000; fill-opacity:0.0; 
stroke:#000000; stroke-width:100; stroke-opacity:1; 
stroke-linecap:round; stroke-linejoin:round;">
</g>
<g style="fill:#000000; fill-opacity:0.0; 
stroke:#000000; stroke-width:60; stroke-opacity:1; 
stroke-linecap:round; stroke-linejoin:round;">
<path d="M69690 73820
L112210 73820
" />
</g>
<g style="fill:#000000; fill-opacity:0.0; 
stroke:#000000; stroke-width:100; stroke-opacity:1; 
stroke-linecap:round; stroke-linejoin:round;">
</g>
<g style="fill:#000000; fill-opacity:0.0; 
stroke:#000000; stroke-width:160; stroke-opacity:1; 
stroke-linecap:round; stroke-linejoin:round;">
<text x="70080" y="74920"
textLength="3710" font-size="1050" lengthAdjust="spacingAndGlyphs"
text-anchor="start" opacity="0">Title: </text>
<path d="M70360 74090
L70810 74090
" />
<path d="M70480 74880
L70580 74090
" />
<path d="M70970 74880
L71040 74360
" />
<path d="M71070 74090
L71030 74130
L71060 74170
L71110 74130
L71070 74090
L71060 74170
" />
<path d="M71300 74360
L71600 74360
" />
<path d="M71450 74090
L71360 74770
L71390 74840
L71460 74880
L71540 74880
" />
<path d="M71910 74880
L71840 74840
L71820 74770
L71900 74090
" />
<path d="M72520 74840
L72440 74880
L72290 74880
L72220 74840
L72190 74770
L72230 74470
L72280 74390
L72360 74360
L72510 74360
L72580 74390
L72610 74470
L72600 74540
L72210 74620
" />
<path d="M72900 74810
L72930 74840
L72890 74880
L72860 74840
L72900 74810
L72890 74880
" />
<path d="M72950 74390
L72990 74430
L72940 74470
L72910 74430
L72950 74390
L72940 74470
" />
</g>
<g style="fill:#000000; fill-opacity:0.0; 
stroke:#000000; stroke-width:100; stroke-opacity:1; 
stroke-linecap:round; stroke-linejoin:round;">
</g>
<g style="fill:#000000; fill-opacity:0.0; 
stroke:#000000; stroke-width:60; stroke-opacity:1; 
stroke-linecap:round; stroke-linejoin:round;">
<text x="70080" y="73400"
textLength="6280" font-size="780" lengthAdjust="spacingAndGlyphs"
text-anchor="start" opacity="0">File: eyes.sch</text>
<path d="M70440 73060
L70250 73060
" />
<path d="M70250 73370
L70250 72780
L70530 72780
" />
<path d="M70750 73370
L70750 72980
" />
<path d="M70750 72780
L70720 72810
L70750 72840
L70780 72810
L70750 72780
L70750 72840
" />
<path d="M71120 73370
L71060 73340
L71030 73290
L71030 72780
" />
<path d="M71570 73340
L71510 73370
L71400 73370
L71340 73340
L71310 73290
L71310 73060
L71340 73010
L71400 72980
L71510 72980
L71570 73010
L71590 73060
L71590 73120
L71310 73180
" />
<path d="M71850 73320
L71880 73340
L71850 73370
L71820 73340
L71850 73320
L71850 73370
" />
<path d="M71850 73010
L71880 73030
L71850 73060
L71820 73030
L71850 73010
L71850 73060
" />
<path d="M72800 73340
L72750 73370
L72630 73370
L72580 73340
L72550 73290
L72550 73060
L72580 73010
L72630 72980
L72750 72980
L72800 73010
L72830 73060
L72830 73120
L72550 73180
" />
<path d="M73030 72980
L73170 73370
" />
<path d="M73310 72980
L73170 73370
L73110 73510
L73080 73540
L73030 73570
" />
<path d="M73760 73340
L73700 73370
L73590 73370
L73530 73340
L73500 73290
L73500 73060
L73530 73010
L73590 72980
L73700 72980
L73760 73010
L73790 73060
L73790 73120
L73500 73180
" />
<path d="M74010 73340
L74070 73370
L74180 73370
L74240 73340
L74260 73290
L74260 73260
L74240 73200
L74180 73180
L74090 73180
L74040 73150
L74010 73090
L74010 73060
L74040 73010
L74090 72980
L74180 72980
L74240 73010
" />
<path d="M74520 73320
L74540 73340
L74520 73370
L74490 73340
L74520 73320
L74520 73370
" />
<path d="M74770 73340
L74830 73370
L74940 73370
L74990 73340
L75020 73290
L75020 73260
L74990 73200
L74940 73180
L74850 73180
L74800 73150
L74770 73090
L74770 73060
L74800 73010
L74850 72980
L74940 72980
L74990 73010
" />
<path d="M75530 73340
L75470 73370
L75360 73370
L75300 73340
L75270 73320
L75250 73260
L75250 73090
L75270 73030
L75300 73010
L75360 72980
L75470 72980
L75530 73010
" />
<path d="M75780 73370
L75780 72780
" />
<path d="M76030 73370
L76030 73060
L76010 73010
L75950 72980
L75860 72980
L75810 73010
L75780 73030
" />
</g>
<g style="fill:#000000; fill-opacity:0.0; 
stroke:#000000; stroke-width:100; stroke-opacity:1; 
stroke-linecap:round; stroke-linejoin:round;">
</g>
<g style="fill:#000000; fill-opacity:0.0; 
stroke:#000000; stroke-width:60; stroke-opacity:1; 
stroke-linecap:round; stroke-linejoin:round;">
<path d="M69690 71460
L112210 71460
" />
</g>
<g style="fill:#000000; fill-opacity:0.0; 
stroke:#000000; stroke-width:100; stroke-opacity:1; 
stroke-linecap:round; stroke-linejoin:round;">
</g>
<g style="fill:#000000; fill-opacity:0.0; 
stroke:#000000; stroke-width:60; stroke-opacity:1; 
stroke-linecap:round; stroke-linejoin:round;">
<text x="70080" y="72340"
textLength="3850" font-size="780" lengthAdjust="spacingAndGlyphs"
text-anchor="start" opacity="0">Sheet: /</text>
<path d="M70220 72280
L70300 72310
L70440 72310
L70500 72280
L70530 72260
L70550 72200
L70550 72140
L70530 72090
L70500 72060
L70440 72030
L70330 72000
L70270 71970
L70250 71950
L70220 71890
L70220 71830
L70250 71780
L70270 71750
L70330 71720
L70470 71720
L70550 71750
" />
<path d="M70810 72310
L70810 71720
" />
<path d="M71060 72310
L71060 72000
L71030 71950
L70980 71920
L70890 71920
L70840 71950
L70810 71970
" />
<path d="M71570 72280
L71510 72310
L71400 72310
L71340 72280
L71310 72230
L71310 72000
L71340 71950
L71400 71920
L71510 71920
L71570 71950
L71590 72000
L71590 72060
L71310 72120
" />
<path d="M72070 72280
L72020 72310
L71900 72310
L71850 72280
L71820 72230
L71820 72000
L71850 71950
L71900 71920
L72020 71920
L72070 71950
L72100 72000
L72100 72060
L71820 72120
" />
<path d="M72270 71920
L72490 71920
" />
<path d="M72350 71720
L72350 72230
L72380 72280
L72440 72310
L72490 72310
" />
<path d="M72690 72260
L72720 72280
L72690 72310
L72660 72280
L72690 72260
L72690 72310
" />
<path d="M72690 71950
L72720 71970
L72690 72000
L72660 71970
L72690 71950
L72690 72000
" />
<path d="M73840 71690
L73340 72450
" />
</g>
<g style="fill:#000000; fill-opacity:0.0; 
stroke:#000000; stroke-width:100; stroke-opacity:1; 
stroke-linecap:round; stroke-linejoin:round;">
</g>
<g style="fill:#000000; fill-opacity:0.0; 
stroke:#000000; stroke-width:60; stroke-opacity:1; 
stroke-linecap:round; stroke-linejoin:round;">
<path d="M77560 75400
L77560 76580
" />
</g>
<g style="fill:#000000; fill-opacity:0.0; 
stroke:#000000; stroke-width:100; stroke-opacity:1; 
stroke-linecap:round; stroke-linejoin:round;">
</g>
<g style="fill:#000000; fill-opacity:0.0; 
stroke:#000000; stroke-width:60; stroke-opacity:1; 
stroke-linecap:round; stroke-linejoin:round;">
<path d="M102760 75400
L102760 77960
" />
</g>
<g style="fill:#000000; fill-opacity:0.0; 
stroke:#000000; stroke-width:0; stroke-opacity:1; 
stroke-linecap:round; stroke-linejoin:round;">
<g >
</g>
<g style="fill:#000000; fill-opacity:0.0; 
stroke:#000000; stroke-width:100; stroke-opacity:1; 
stroke-linecap:round; stroke-linejoin:round;">
<path style="fill:#000000; fill-opacity:0.0; 
stroke:#000000; stroke-width:100; stroke-opacity:1; 
stroke-linecap:round; stroke-linejoin:round;fill:none"
d="M 86500,39500
86500,44500
" /> 
<path style="fill:#000000; fill-opacity:0.0; 
stroke:#000000; stroke-width:100; stroke-opacity:1; 
stroke-linecap:round; stroke-linejoin:round;fill:none"
d="M 86500,44500
90500,44500
" /> 
<path style="fill:#000000; fill-opacity:0.0; 
stroke:#000000; stroke-width:100; stroke-opacity:1; 
stroke-linecap:round; stroke-linejoin:round;fill:none"
d="M 90500,44500
90500,39500
" /> 
<path style="fill:#000000; fill-opacity:0.0; 
stroke:#000000; stroke-width:100; stroke-opacity:1; 
stroke-linecap:round; stroke-linejoin:round;fill:none"
d="M 90500,39500
86500,39500
" /> 
</g>
<g style="fill:#000000; fill-opacity:0.0; 
stroke:#000000; stroke-width:60; stroke-opacity:1; 
stroke-linecap:round; stroke-linejoin:round;">
<path d="M86500 40500
L84500 40500
" />
<text x="86900" y="40700"
textLength="1200" font-size="530" lengthAdjust="spacingAndGlyphs"
text-anchor="start" opacity="0">VCC</text>
<path d="M86960 40280
L87100 40680
L87230 40280
" />
<path d="M87590 40640
L87570 40660
L87520 40680
L87480 40680
L87420 40660
L87380 40620
L87360 40580
L87340 40500
L87340 40450
L87360 40370
L87380 40330
L87420 40300
L87480 40280
L87520 40280
L87570 40300
L87590 40310
" />
<path d="M87990 40640
L87970 40660
L87920 40680
L87880 40680
L87820 40660
L87780 40620
L87760 40580
L87740 40500
L87740 40450
L87760 40370
L87780 40330
L87820 40300
L87880 40280
L87920 40280
L87970 40300
L87990 40310
" />
<text x="85500" y="40400"
textLength="440" font-size="530" lengthAdjust="spacingAndGlyphs"
text-anchor="middle" opacity="0">1</text>
<path d="M85610 40380
L85380 40380
" />
<path d="M85500 40380
L85500 39980
L85460 40030
L85420 40070
L85380 40090
" />
<path d="M86500 43500
L84500 43500
" />
<text x="86900" y="43700"
textLength="1280" font-size="530" lengthAdjust="spacingAndGlyphs"
text-anchor="start" opacity="0">GND</text>
<path d="M87230 43300
L87190 43280
L87130 43280
L87080 43300
L87040 43330
L87020 43370
L87000 43450
L87000 43500
L87020 43580
L87040 43620
L87080 43660
L87130 43680
L87170 43680
L87230 43660
L87250 43640
L87250 43500
L87170 43500
" />
<path d="M87420 43680
L87420 43280
L87650 43680
L87650 43280
" />
<path d="M87840 43680
L87840 43280
L87930 43280
L87990 43300
L88030 43330
L88050 43370
L88070 43450
L88070 43500
L88050 43580
L88030 43620
L87990 43660
L87930 43680
L87840 43680
" />
<text x="85500" y="43400"
textLength="440" font-size="530" lengthAdjust="spacingAndGlyphs"
text-anchor="middle" opacity="0">4</text>
<path d="M85570 43110
L85570 43380
" />
<path d="M85480 42960
L85380 43240
L85630 43240
" />
<path d="M86500 41500
L84500 41500
" />
<text x="86900" y="41700"
textLength="1360" font-size="530" lengthAdjust="spacingAndGlyphs"
text-anchor="start" opacity="0">TRIG</text>
<path d="M86960 41280
L87190 41280
" />
<path d="M87080 41680
L87080 41280
" />
<path d="M87550 41680
L87420 41490
" />
<path d="M87330 41680
L87330 41280
L87480 41280
L87520 41300
L87530 41310
L87550 41350
L87550 41410
L87530 41450
L87520 41470
L87480 41490
L87330 41490
" />
<path d="M87730 41680
L87730 41280
" />
<path d="M88130 41300
L88090 41280
L88030 41280
L87970 41300
L87930 41330
L87920 41370
L87900 41450
L87900 41500
L87920 41580
L87930 41620
L87970 41660
L88030 41680
L88070 41680
L88130 41660
L88140 41640
L88140 41500
L88070 41500
" />
<text x="85500" y="41400"
textLength="440" font-size="530" lengthAdjust="spacingAndGlyphs"
text-anchor="middle" opacity="0">2</text>
<path d="M85380 41010
L85400 41000
L85440 40980
L85530 40980
L85570 41000
L85590 41010
L85610 41050
L85610 41090
L85590 41150
L85360 41380
L85610 41380
" />
<path d="M86500 42500
L84500 42500
" />
<text x="86900" y="42700"
textLength="1660" font-size="530" lengthAdjust="spacingAndGlyphs"
text-anchor="start" opacity="0">ECHO</text>
<path d="M87020 42470
L87150 42470
" />
<path d="M87210 42680
L87020 42680
L87020 42280
L87210 42280
" />
<path d="M87610 42640
L87590 42660
L87530 42680
L87500 42680
L87440 42660
L87400 42620
L87380 42580
L87360 42500
L87360 42450
L87380 42370
L87400 42330
L87440 42300
L87500 42280
L87530 42280
L87590 42300
L87610 42310
" />
<path d="M87780 42680
L87780 42280
" />
<path d="M87780 42470
L88010 42470
" />
<path d="M88010 42680
L88010 42280
" />
<path d="M88280 42280
L88350 42280
L88390 42300
L88430 42330
L88450 42410
L88450 42540
L88430 42620
L88390 42660
L88350 42680
L88280 42680
L88240 42660
L88200 42620
L88180 42540
L88180 42410
L88200 42330
L88240 42300
L88280 42280
" />
<text x="85500" y="42400"
textLength="440" font-size="530" lengthAdjust="spacingAndGlyphs"
text-anchor="middle" opacity="0">3</text>
<path d="M85360 41980
L85610 41980
L85480 42130
L85530 42130
L85570 42150
L85590 42170
L85610 42200
L85610 42300
L85590 42340
L85570 42360
L85530 42380
L85420 42380
L85380 42360
L85360 42340
" />
<text x="91330" y="41810"
textLength="1060" font-size="660" lengthAdjust="spacingAndGlyphs"
text-anchor="middle" opacity="0">U2</text>
<path d="M90940 41280
L90940 41690
L90970 41730
L90990 41760
L91040 41780
L91130 41780
L91180 41760
L91210 41730
L91230 41690
L91230 41280
" />
<path d="M91440 41330
L91470 41310
L91520 41280
L91630 41280
L91680 41310
L91710 41330
L91730 41380
L91730 41420
L91710 41500
L91420 41780
L91730 41780
" />
<text x="92610" y="42720"
textLength="3630" font-size="660" lengthAdjust="spacingAndGlyphs"
text-anchor="middle" opacity="0">HC-SR04</text>
<path d="M90940 42690
L90940 42190
" />
<path d="M90940 42430
L91220 42430
" />
<path d="M91220 42690
L91220 42190
" />
<path d="M91750 42640
L91720 42670
L91650 42690
L91610 42690
L91530 42670
L91490 42620
L91460 42570
L91440 42480
L91440 42410
L91460 42310
L91490 42260
L91530 42220
L91610 42190
L91650 42190
L91720 42220
L91750 42240
" />
<path d="M91960 42500
L92340 42500
" />
<path d="M92560 42670
L92630 42690
L92750 42690
L92800 42670
L92820 42640
L92840 42600
L92840 42550
L92820 42500
L92800 42480
L92750 42450
L92650 42430
L92610 42410
L92580 42380
L92560 42330
L92560 42290
L92580 42240
L92610 42220
L92650 42190
L92770 42190
L92840 42220
" />
<path d="M93340 42690
L93180 42450
" />
<path d="M93060 42690
L93060 42190
L93250 42190
L93300 42220
L93320 42240
L93340 42290
L93340 42360
L93320 42410
L93300 42430
L93250 42450
L93060 42450
" />
<path d="M93650 42190
L93700 42190
L93750 42220
L93770 42240
L93800 42290
L93820 42380
L93820 42500
L93800 42600
L93770 42640
L93750 42670
L93700 42690
L93650 42690
L93610 42670
L93580 42640
L93560 42600
L93530 42500
L93530 42380
L93560 42290
L93580 42240
L93610 42220
L93650 42190
" />
<path d="M94250 42360
L94250 42690
" />
<path d="M94130 42170
L94010 42520
L94320 42520
" />
</g>
</g>
<g style="fill:#000000; fill-opacity:0.0; 
stroke:#000000; stroke-width:0; stroke-opacity:1; 
stroke-linecap:round; stroke-linejoin:round;">
<g >
</g>
<g style="fill:#000000; fill-opacity:1.0; 
stroke:#000000; stroke-width:60; stroke-opacity:1; 
stroke-linecap:round; stroke-linejoin:round;">
<rect x="75100" y="26300" width="1800" height="100" rx="0" />
<rect x="75380" y="26530" width="1200" height="200" rx="0" />
</g>
<g style="fill:#000000; fill-opacity:0.0; 
stroke:#000000; stroke-width:60; stroke-opacity:1; 
stroke-linecap:round; stroke-linejoin:round;">
<path style="fill:#000000; fill-opacity:0.0; 
stroke:#000000; stroke-width:60; stroke-opacity:1; 
stroke-linecap:round; stroke-linejoin:round;fill:none"
d="M 76000,26700
76000,27000
" /> 
<path style="fill:#000000; fill-opacity:0.0; 
stroke:#000000; stroke-width:60; stroke-opacity:1; 
stroke-linecap:round; stroke-linejoin:round;fill:none"
d="M 76000,26300
76000,26000
" /> 
</g>
<g style="fill:#000000; fill-opacity:0.0; 
stroke:#000000; stroke-width:100; stroke-opacity:1; 
stroke-linecap:round; stroke-linejoin:round;">
<path style="fill:#000000; fill-opacity:0.0; 
stroke:#000000; stroke-width:100; stroke-opacity:1; 
stroke-linecap:round; stroke-linejoin:round;fill:none"
d="M 76200,25650
76600,25650
" /> 
<path style="fill:#000000; fill-opacity:0.0; 
stroke:#000000; stroke-width:100; stroke-opacity:1; 
stroke-linecap:round; stroke-linejoin:round;fill:none"
d="M 76400,25450
76400,25850
" /> 
</g>
<g style="fill:#000000; fill-opacity:0.0; 
stroke:#000000; stroke-width:60; stroke-opacity:1; 
stroke-linecap:round; stroke-linejoin:round;">
<path d="M76000 26000
L76000 25000
" />
<path d="M76000 27000
L76000 28000
" />
<text x="79450" y="26770"
textLength="4540" font-size="660" lengthAdjust="spacingAndGlyphs"
text-anchor="middle" opacity="0">Battery_Cell</text>
<path d="M77490 26480
L77560 26500
L77590 26530
L77610 26570
L77610 26650
L77590 26690
L77560 26720
L77520 26740
L77330 26740
L77330 26240
L77490 26240
L77540 26270
L77560 26290
L77590 26340
L77590 26380
L77560 26430
L77540 26460
L77490 26480
L77330 26480
" />
<path d="M78040 26740
L78040 26480
L78020 26430
L77970 26410
L77870 26410
L77830 26430
" />
<path d="M78040 26720
L77990 26740
L77870 26740
L77830 26720
L77800 26670
L77800 26620
L77830 26570
L77870 26550
L77990 26550
L78040 26530
" />
<path d="M78210 26410
L78400 26410
" />
<path d="M78280 26240
L78280 26670
L78300 26720
L78350 26740
L78400 26740
" />
<path d="M78490 26410
L78680 26410
" />
<path d="M78560 26240
L78560 26670
L78590 26720
L78640 26740
L78680 26740
" />
<path d="M79040 26720
L78990 26740
L78900 26740
L78850 26720
L78830 26670
L78830 26480
L78850 26430
L78900 26410
L78990 26410
L79040 26430
L79060 26480
L79060 26530
L78830 26570
" />
<path d="M79280 26740
L79280 26410
" />
<path d="M79280 26500
L79300 26460
L79330 26430
L79370 26410
L79420 26410
" />
<path d="M79540 26410
L79660 26740
" />
<path d="M79780 26410
L79660 26740
L79610 26860
L79590 26880
L79540 26910
" />
<path d="M79850 26790
L80230 26790
" />
<path d="M80640 26690
L80610 26720
L80540 26740
L80490 26740
L80420 26720
L80370 26670
L80350 26620
L80330 26530
L80330 26460
L80350 26360
L80370 26310
L80420 26270
L80490 26240
L80540 26240
L80610 26270
L80640 26290
" />
<path d="M81040 26720
L80990 26740
L80900 26740
L80850 26720
L80830 26670
L80830 26480
L80850 26430
L80900 26410
L80990 26410
L81040 26430
L81060 26480
L81060 26530
L80830 26570
" />
<path d="M81350 26740
L81300 26720
L81280 26670
L81280 26240
" />
<path d="M81610 26740
L81560 26720
L81540 26670
L81540 26240
" />
</g>
</g>
<g style="fill:#000000; fill-opacity:0.0; 
stroke:#000000; stroke-width:0; stroke-opacity:1; 
stroke-linecap:round; stroke-linejoin:round;">
<g >
</g>
<g style="fill:#000000; fill-opacity:0.0; 
stroke:#000000; stroke-width:60; stroke-opacity:1; 
stroke-linecap:round; stroke-linejoin:round;">
<path style="fill:#000000; fill-opacity:0.0; 
stroke:#000000; stroke-width:60; stroke-opacity:1; 
stroke-linecap:round; stroke-linejoin:round;fill:none"
d="M 84000,40800
83500,40500
" /> 
<path style="fill:#000000; fill-opacity:0.0; 
stroke:#000000; stroke-width:60; stroke-opacity:1; 
stroke-linecap:round; stroke-linejoin:round;fill:none"
d="M 84500,40500
83500,40500
" /> 
<path style="fill:#000000; fill-opacity:0.0; 
stroke:#000000; stroke-width:60; stroke-opacity:1; 
stroke-linecap:round; stroke-linejoin:round;fill:none"
d="M 83500,40500
84000,40200
" /> 
<text x="82430" y="40570"
textLength="1580" font-size="660" lengthAdjust="spacingAndGlyphs"
text-anchor="middle" opacity="0">+5V</text>
<path d="M81780 40350
L82160 40350
" />
<path d="M81970 40540
L81970 40160
" />
<path d="M82640 40040
L82400 40040
L82380 40280
L82400 40260
L82450 40230
L82570 40230
L82620 40260
L82640 40280
L82660 40330
L82660 40450
L82640 40490
L82620 40520
L82570 40540
L82450 40540
L82400 40520
L82380 40490
" />
<path d="M82810 40040
L82970 40540
L83140 40040
" />
</g>
</g>
<g style="fill:#000000; fill-opacity:0.0; 
stroke:#000000; stroke-width:0; stroke-opacity:1; 
stroke-linecap:round; stroke-linejoin:round;">
<g >
</g>
<g style="fill:#000000; fill-opacity:0.0; 
stroke:#000000; stroke-width:60; stroke-opacity:1; 
stroke-linecap:round; stroke-linejoin:round;">
<path style="fill:#000000; fill-opacity:0.0; 
stroke:#000000; stroke-width:60; stroke-opacity:1; 
stroke-linecap:round; stroke-linejoin:round;fill:none"
d="M 84000,30800
83500,30500
" /> 
<path style="fill:#000000; fill-opacity:0.0; 
stroke:#000000; stroke-width:60; stroke-opacity:1; 
stroke-linecap:round; stroke-linejoin:round;fill:none"
d="M 84500,30500
83500,30500
" /> 
<path style="fill:#000000; fill-opacity:0.0; 
stroke:#000000; stroke-width:60; stroke-opacity:1; 
stroke-linecap:round; stroke-linejoin:round;fill:none"
d="M 83500,30500
84000,30200
" /> 
<text x="82430" y="30570"
textLength="1580" font-size="660" lengthAdjust="spacingAndGlyphs"
text-anchor="middle" opacity="0">+5V</text>
<path d="M81780 30350
L82160 30350
" />
<path d="M81970 30540
L81970 30160
" />
<path d="M82640 30040
L82400 30040
L82380 30280
L82400 30260
L82450 30230
L82570 30230
L82620 30260
L82640 30280
L82660 30330
L82660 30450
L82640 30490
L82620 30520
L82570 30540
L82450 30540
L82400 30520
L82380 30490
" />
<path d="M82810 30040
L82970 30540
L83140 30040
" />
</g>
</g>
<g style="fill:#000000; fill-opacity:0.0; 
stroke:#000000; stroke-width:0; stroke-opacity:1; 
stroke-linecap:round; stroke-linejoin:round;">
<g >
</g>
<g style="fill:#000000; fill-opacity:0.0; 
stroke:#000000; stroke-width:60; stroke-opacity:1; 
stroke-linecap:round; stroke-linejoin:round;">
<path style="fill:#000000; fill-opacity:0.0; 
stroke:#000000; stroke-width:60; stroke-opacity:1; 
stroke-linecap:round; stroke-linejoin:round;fill:none"
d="M 84250,34250
84750,34250
" /> 
<path style="fill:#000000; fill-opacity:0.0; 
stroke:#000000; stroke-width:60; stroke-opacity:1; 
stroke-linecap:round; stroke-linejoin:round;fill:none"
d="M 84450,34500
84550,34500
" /> 
<path style="fill:#000000; fill-opacity:0.0; 
stroke:#000000; stroke-width:60; stroke-opacity:1; 
stroke-linecap:round; stroke-linejoin:round;fill:none"
d="M 84500,34000
84500,33500
" /> 
<path style="fill:#000000; fill-opacity:0.0; 
stroke:#000000; stroke-width:60; stroke-opacity:1; 
stroke-linecap:round; stroke-linejoin:round;fill:none"
d="M 85000,34000
84000,34000
" /> 
</g>
</g>
<g style="fill:#000000; fill-opacity:0.0; 
stroke:#000000; stroke-width:0; stroke-opacity:1; 
stroke-linecap:round; stroke-linejoin:round;">
<g >
</g>
<g style="fill:#000000; fill-opacity:0.0; 
stroke:#000000; stroke-width:60; stroke-opacity:1; 
stroke-linecap:round; stroke-linejoin:round;">
<path style="fill:#000000; fill-opacity:0.0; 
stroke:#000000; stroke-width:60; stroke-opacity:1; 
stroke-linecap:round; stroke-linejoin:round;fill:none"
d="M 84250,44250
84750,44250
" /> 
<path style="fill:#000000; fill-opacity:0.0; 
stroke:#000000; stroke-width:60; stroke-opacity:1; 
stroke-linecap:round; stroke-linejoin:round;fill:none"
d="M 84450,44500
84550,44500
" /> 
<path style="fill:#000000; fill-opacity:0.0; 
stroke:#000000; stroke-width:60; stroke-opacity:1; 
stroke-linecap:round; stroke-linejoin:round;fill:none"
d="M 84500,44000
84500,43500
" /> 
<path style="fill:#000000; fill-opacity:0.0; 
stroke:#000000; stroke-width:60; stroke-opacity:1; 
stroke-linecap:round; stroke-linejoin:round;fill:none"
d="M 85000,44000
84000,44000
" /> 
</g>
</g>
<g style="fill:#000000; fill-opacity:0.0; 
stroke:#000000; stroke-width:0; stroke-opacity:1; 
stroke-linecap:round; stroke-linejoin:round;">
<g >
</g>
<g style="fill:#000000; fill-opacity:0.0; 
stroke:#000000; stroke-width:60; stroke-opacity:1; 
stroke-linecap:round; stroke-linejoin:round;">
<rect x="38500" y="23500" width="10000" height="13000" rx="0" />
<path d="M38500 24500
L36500 24500
" />
<text x="38900" y="24750"
textLength="920" font-size="660" lengthAdjust="spacingAndGlyphs"
text-anchor="start" opacity="0">TX</text>
<path d="M38970 24220
L39260 24220
" />
<path d="M39120 24720
L39120 24220
" />
<path d="M39380 24220
L39710 24720
" />
<path d="M39710 24220
L39380 24720
" />
<text x="37500" y="24400"
textLength="540" font-size="660" lengthAdjust="spacingAndGlyphs"
text-anchor="middle" opacity="0">1</text>
<path d="M37640 24370
L37350 24370
" />
<path d="M37500 24370
L37500 23870
L37450 23940
L37400 23990
L37350 24010
" />
<path d="M38500 25500
L36500 25500
" />
<text x="38900" y="25750"
textLength="1040" font-size="660" lengthAdjust="spacingAndGlyphs"
text-anchor="start" opacity="0">RX</text>
<path d="M39330 25720
L39160 25480
" />
<path d="M39040 25720
L39040 25220
L39230 25220
L39280 25250
L39310 25270
L39330 25320
L39330 25390
L39310 25440
L39280 25460
L39230 25480
L39040 25480
" />
<path d="M39500 25220
L39830 25720
" />
<path d="M39830 25220
L39500 25720
" />
<text x="37500" y="25400"
textLength="540" font-size="660" lengthAdjust="spacingAndGlyphs"
text-anchor="middle" opacity="0">2</text>
<path d="M37350 24920
L37380 24900
L37420 24870
L37540 24870
L37590 24900
L37610 24920
L37640 24970
L37640 25010
L37610 25090
L37330 25370
L37640 25370
" />
<path d="M38500 26500
L36500 26500
" />
<text x="38900" y="26750"
textLength="1580" font-size="660" lengthAdjust="spacingAndGlyphs"
text-anchor="start" opacity="0">GND</text>
<path d="M39310 26250
L39260 26220
L39190 26220
L39120 26250
L39070 26290
L39040 26340
L39020 26440
L39020 26510
L39040 26600
L39070 26650
L39120 26700
L39190 26720
L39230 26720
L39310 26700
L39330 26670
L39330 26510
L39230 26510
" />
<path d="M39540 26720
L39540 26220
L39830 26720
L39830 26220
" />
<path d="M40070 26720
L40070 26220
L40190 26220
L40260 26250
L40310 26290
L40330 26340
L40350 26440
L40350 26510
L40330 26600
L40310 26650
L40260 26700
L40190 26720
L40070 26720
" />
<text x="37500" y="26400"
textLength="540" font-size="660" lengthAdjust="spacingAndGlyphs"
text-anchor="middle" opacity="0">3</text>
<path d="M37330 25870
L37640 25870
L37470 26060
L37540 26060
L37590 26090
L37610 26110
L37640 26160
L37640 26280
L37610 26320
L37590 26350
L37540 26370
L37400 26370
L37350 26350
L37330 26320
" />
<path d="M38500 27500
L36500 27500
" />
<text x="38900" y="27750"
textLength="1580" font-size="660" lengthAdjust="spacingAndGlyphs"
text-anchor="start" opacity="0">GND</text>
<path d="M39310 27250
L39260 27220
L39190 27220
L39120 27250
L39070 27290
L39040 27340
L39020 27440
L39020 27510
L39040 27600
L39070 27650
L39120 27700
L39190 27720
L39230 27720
L39310 27700
L39330 27670
L39330 27510
L39230 27510
" />
<path d="M39540 27720
L39540 27220
L39830 27720
L39830 27220
" />
<path d="M40070 27720
L40070 27220
L40190 27220
L40260 27250
L40310 27290
L40330 27340
L40350 27440
L40350 27510
L40330 27600
L40310 27650
L40260 27700
L40190 27720
L40070 27720
" />
<text x="37500" y="27400"
textLength="540" font-size="660" lengthAdjust="spacingAndGlyphs"
text-anchor="middle" opacity="0">4</text>
<path d="M37590 27040
L37590 27370
" />
<path d="M37470 26850
L37350 27200
L37660 27200
" />
<path d="M38500 28500
L36500 28500
" />
<text x="38900" y="28750"
textLength="1440" font-size="660" lengthAdjust="spacingAndGlyphs"
text-anchor="start" opacity="0">SCL</text>
<path d="M39020 28700
L39090 28720
L39210 28720
L39260 28700
L39280 28670
L39310 28630
L39310 28580
L39280 28530
L39260 28510
L39210 28480
L39120 28460
L39070 28440
L39040 28410
L39020 28360
L39020 28320
L39040 28270
L39070 28250
L39120 28220
L39230 28220
L39310 28250
" />
<path d="M39810 28670
L39780 28700
L39710 28720
L39660 28720
L39590 28700
L39540 28650
L39520 28600
L39500 28510
L39500 28440
L39520 28340
L39540 28290
L39590 28250
L39660 28220
L39710 28220
L39780 28250
L39810 28270
" />
<path d="M40260 28720
L40020 28720
L40020 28220
" />
<text x="37500" y="28400"
textLength="540" font-size="660" lengthAdjust="spacingAndGlyphs"
text-anchor="middle" opacity="0">5</text>
<path d="M37610 27870
L37380 27870
L37350 28110
L37380 28090
L37420 28060
L37540 28060
L37590 28090
L37610 28110
L37640 28160
L37640 28280
L37610 28320
L37590 28350
L37540 28370
L37420 28370
L37380 28350
L37350 28320
" />
<path d="M38500 29500
L36500 29500
" />
<text x="38900" y="29750"
textLength="1460" font-size="660" lengthAdjust="spacingAndGlyphs"
text-anchor="start" opacity="0">SDA</text>
<path d="M39020 29700
L39090 29720
L39210 29720
L39260 29700
L39280 29670
L39310 29630
L39310 29580
L39280 29530
L39260 29510
L39210 29480
L39120 29460
L39070 29440
L39040 29410
L39020 29360
L39020 29320
L39040 29270
L39070 29250
L39120 29220
L39230 29220
L39310 29250
" />
<path d="M39520 29720
L39520 29220
L39640 29220
L39710 29250
L39760 29290
L39780 29340
L39810 29440
L39810 29510
L39780 29600
L39760 29650
L39710 29700
L39640 29720
L39520 29720
" />
<path d="M40000 29580
L40230 29580
" />
<path d="M39950 29720
L40120 29220
L40280 29720
" />
<text x="37500" y="29400"
textLength="540" font-size="660" lengthAdjust="spacingAndGlyphs"
text-anchor="middle" opacity="0">6</text>
<path d="M37590 28870
L37500 28870
L37450 28900
L37420 28920
L37380 28990
L37350 29090
L37350 29280
L37380 29320
L37400 29350
L37450 29370
L37540 29370
L37590 29350
L37610 29320
L37640 29280
L37640 29160
L37610 29110
L37590 29090
L37540 29060
L37450 29060
L37400 29090
L37380 29110
L37350 29160
" />
<path d="M38500 30500
L36500 30500
" />
<text x="38900" y="30750"
textLength="1040" font-size="660" lengthAdjust="spacingAndGlyphs"
text-anchor="start" opacity="0">D4</text>
<path d="M39040 30720
L39040 30220
L39160 30220
L39230 30250
L39280 30290
L39310 30340
L39330 30440
L39330 30510
L39310 30600
L39280 30650
L39230 30700
L39160 30720
L39040 30720
" />
<path d="M39760 30390
L39760 30720
" />
<path d="M39640 30200
L39520 30550
L39830 30550
" />
<text x="37500" y="30400"
textLength="540" font-size="660" lengthAdjust="spacingAndGlyphs"
text-anchor="middle" opacity="0">7</text>
<path d="M37330 29870
L37660 29870
L37450 30370
" />
<path d="M38500 31500
L36500 31500
" />
<text x="38900" y="31750"
textLength="1040" font-size="660" lengthAdjust="spacingAndGlyphs"
text-anchor="start" opacity="0">C6</text>
<path d="M39330 31670
L39310 31700
L39230 31720
L39190 31720
L39120 31700
L39070 31650
L39040 31600
L39020 31510
L39020 31440
L39040 31340
L39070 31290
L39120 31250
L39190 31220
L39230 31220
L39310 31250
L39330 31270
" />
<path d="M39760 31220
L39660 31220
L39620 31250
L39590 31270
L39540 31340
L39520 31440
L39520 31630
L39540 31670
L39570 31700
L39620 31720
L39710 31720
L39760 31700
L39780 31670
L39810 31630
L39810 31510
L39780 31460
L39760 31440
L39710 31410
L39620 31410
L39570 31440
L39540 31460
L39520 31510
" />
<text x="37500" y="31400"
textLength="540" font-size="660" lengthAdjust="spacingAndGlyphs"
text-anchor="middle" opacity="0">8</text>
<path d="M37450 31090
L37400 31060
L37380 31040
L37350 30990
L37350 30970
L37380 30920
L37400 30900
L37450 30870
L37540 30870
L37590 30900
L37610 30920
L37640 30970
L37640 30990
L37610 31040
L37590 31060
L37540 31090
L37450 31090
L37400 31110
L37380 31130
L37350 31180
L37350 31280
L37380 31320
L37400 31350
L37450 31370
L37540 31370
L37590 31350
L37610 31320
L37640 31280
L37640 31180
L37610 31130
L37590 31110
L37540 31090
" />
<path d="M38500 32500
L36500 32500
" />
<text x="38900" y="32750"
textLength="1040" font-size="660" lengthAdjust="spacingAndGlyphs"
text-anchor="start" opacity="0">D7</text>
<path d="M39040 32720
L39040 32220
L39160 32220
L39230 32250
L39280 32290
L39310 32340
L39330 32440
L39330 32510
L39310 32600
L39280 32650
L39230 32700
L39160 32720
L39040 32720
" />
<path d="M39500 32220
L39830 32220
L39620 32720
" />
<text x="37500" y="32400"
textLength="540" font-size="660" lengthAdjust="spacingAndGlyphs"
text-anchor="middle" opacity="0">9</text>
<path d="M37400 32370
L37500 32370
L37540 32350
L37570 32320
L37610 32250
L37640 32160
L37640 31970
L37610 31920
L37590 31900
L37540 31870
L37450 31870
L37400 31900
L37380 31920
L37350 31970
L37350 32090
L37380 32130
L37400 32160
L37450 32180
L37540 32180
L37590 32160
L37610 32130
L37640 32090
" />
<path d="M38500 33500
L36500 33500
" />
<text x="38900" y="33750"
textLength="990" font-size="660" lengthAdjust="spacingAndGlyphs"
text-anchor="start" opacity="0">E6</text>
<path d="M39040 33460
L39210 33460
" />
<path d="M39280 33720
L39040 33720
L39040 33220
L39280 33220
" />
<path d="M39710 33220
L39620 33220
L39570 33250
L39540 33270
L39500 33340
L39470 33440
L39470 33630
L39500 33670
L39520 33700
L39570 33720
L39660 33720
L39710 33700
L39730 33670
L39760 33630
L39760 33510
L39730 33460
L39710 33440
L39660 33410
L39570 33410
L39520 33440
L39500 33460
L39470 33510
" />
<text x="37500" y="33400"
textLength="1010" font-size="660" lengthAdjust="spacingAndGlyphs"
text-anchor="middle" opacity="0">10</text>
<path d="M37400 33370
L37110 33370
" />
<path d="M37260 33370
L37260 32870
L37210 32940
L37160 32990
L37110 33010
" />
<path d="M37710 32870
L37760 32870
L37800 32900
L37830 32920
L37850 32970
L37880 33060
L37880 33180
L37850 33280
L37830 33320
L37800 33350
L37760 33370
L37710 33370
L37660 33350
L37640 33320
L37610 33280
L37590 33180
L37590 33060
L37610 32970
L37640 32920
L37660 32900
L37710 32870
" />
<path d="M48500 28500
L50500 28500
" />
<text x="48100" y="28750"
textLength="960" font-size="660" lengthAdjust="spacingAndGlyphs"
text-anchor="end" opacity="0">F4</text>
<path d="M47450 28460
L47280 28460
" />
<path d="M47280 28720
L47280 28220
L47520 28220
" />
<path d="M47920 28390
L47920 28720
" />
<path d="M47800 28200
L47680 28550
L47990 28550
" />
<text x="49500" y="28400"
textLength="1010" font-size="660" lengthAdjust="spacingAndGlyphs"
text-anchor="middle" opacity="0">20</text>
<path d="M49110 27920
L49140 27900
L49190 27870
L49300 27870
L49350 27900
L49380 27920
L49400 27970
L49400 28010
L49380 28090
L49090 28370
L49400 28370
" />
<path d="M49710 27870
L49760 27870
L49800 27900
L49830 27920
L49850 27970
L49880 28060
L49880 28180
L49850 28280
L49830 28320
L49800 28350
L49760 28370
L49710 28370
L49660 28350
L49640 28320
L49610 28280
L49590 28180
L49590 28060
L49610 27970
L49640 27920
L49660 27900
L49710 27870
" />
<path d="M38500 34500
L36500 34500
" />
<text x="38900" y="34750"
textLength="1040" font-size="660" lengthAdjust="spacingAndGlyphs"
text-anchor="start" opacity="0">B4</text>
<path d="M39210 34460
L39280 34480
L39310 34510
L39330 34550
L39330 34630
L39310 34670
L39280 34700
L39230 34720
L39040 34720
L39040 34220
L39210 34220
L39260 34250
L39280 34270
L39310 34320
L39310 34360
L39280 34410
L39260 34440
L39210 34460
L39040 34460
" />
<path d="M39760 34390
L39760 34720
" />
<path d="M39640 34200
L39520 34550
L39830 34550
" />
<text x="37500" y="34400"
textLength="1010" font-size="660" lengthAdjust="spacingAndGlyphs"
text-anchor="middle" opacity="0">11</text>
<path d="M37400 34370
L37110 34370
" />
<path d="M37260 34370
L37260 33870
L37210 33940
L37160 33990
L37110 34010
" />
<path d="M37880 34370
L37590 34370
" />
<path d="M37730 34370
L37730 33870
L37690 33940
L37640 33990
L37590 34010
" />
<path d="M48500 27500
L50500 27500
" />
<text x="48100" y="27750"
textLength="1490" font-size="660" lengthAdjust="spacingAndGlyphs"
text-anchor="end" opacity="0">VCC</text>
<path d="M46680 27220
L46850 27720
L47020 27220
" />
<path d="M47470 27670
L47450 27700
L47370 27720
L47330 27720
L47260 27700
L47210 27650
L47180 27600
L47160 27510
L47160 27440
L47180 27340
L47210 27290
L47260 27250
L47330 27220
L47370 27220
L47450 27250
L47470 27270
" />
<path d="M47970 27670
L47950 27700
L47870 27720
L47830 27720
L47760 27700
L47710 27650
L47680 27600
L47660 27510
L47660 27440
L47680 27340
L47710 27290
L47760 27250
L47830 27220
L47870 27220
L47950 27250
L47970 27270
" />
<text x="49500" y="27400"
textLength="1010" font-size="660" lengthAdjust="spacingAndGlyphs"
text-anchor="middle" opacity="0">21</text>
<path d="M49110 26920
L49140 26900
L49190 26870
L49300 26870
L49350 26900
L49380 26920
L49400 26970
L49400 27010
L49380 27090
L49090 27370
L49400 27370
" />
<path d="M49880 27370
L49590 27370
" />
<path d="M49730 27370
L49730 26870
L49690 26940
L49640 26990
L49590 27010
" />
<path d="M38500 35500
L36500 35500
" />
<text x="38900" y="35750"
textLength="1040" font-size="660" lengthAdjust="spacingAndGlyphs"
text-anchor="start" opacity="0">B5</text>
<path d="M39210 35460
L39280 35480
L39310 35510
L39330 35550
L39330 35630
L39310 35670
L39280 35700
L39230 35720
L39040 35720
L39040 35220
L39210 35220
L39260 35250
L39280 35270
L39310 35320
L39310 35360
L39280 35410
L39260 35440
L39210 35460
L39040 35460
" />
<path d="M39780 35220
L39540 35220
L39520 35460
L39540 35440
L39590 35410
L39710 35410
L39760 35440
L39780 35460
L39810 35510
L39810 35630
L39780 35670
L39760 35700
L39710 35720
L39590 35720
L39540 35700
L39520 35670
" />
<text x="37500" y="35400"
textLength="1010" font-size="660" lengthAdjust="spacingAndGlyphs"
text-anchor="middle" opacity="0">12</text>
<path d="M37400 35370
L37110 35370
" />
<path d="M37260 35370
L37260 34870
L37210 34940
L37160 34990
L37110 35010
" />
<path d="M37590 34920
L37610 34900
L37660 34870
L37780 34870
L37830 34900
L37850 34920
L37880 34970
L37880 35010
L37850 35090
L37570 35370
L37880 35370
" />
<path d="M48500 26500
L50500 26500
" />
<text x="48100" y="26750"
textLength="1420" font-size="660" lengthAdjust="spacingAndGlyphs"
text-anchor="end" opacity="0">RST</text>
<path d="M47110 26720
L46950 26480
" />
<path d="M46830 26720
L46830 26220
L47020 26220
L47070 26250
L47090 26270
L47110 26320
L47110 26390
L47090 26440
L47070 26460
L47020 26480
L46830 26480
" />
<path d="M47300 26700
L47370 26720
L47490 26720
L47540 26700
L47570 26670
L47590 26630
L47590 26580
L47570 26530
L47540 26510
L47490 26480
L47400 26460
L47350 26440
L47330 26410
L47300 26360
L47300 26320
L47330 26270
L47350 26250
L47400 26220
L47520 26220
L47590 26250
" />
<path d="M47730 26220
L48020 26220
" />
<path d="M47870 26720
L47870 26220
" />
<text x="49500" y="26400"
textLength="1010" font-size="660" lengthAdjust="spacingAndGlyphs"
text-anchor="middle" opacity="0">22</text>
<path d="M49110 25920
L49140 25900
L49190 25870
L49300 25870
L49350 25900
L49380 25920
L49400 25970
L49400 26010
L49380 26090
L49090 26370
L49400 26370
" />
<path d="M49590 25920
L49610 25900
L49660 25870
L49780 25870
L49830 25900
L49850 25920
L49880 25970
L49880 26010
L49850 26090
L49570 26370
L49880 26370
" />
<path d="M48500 35500
L50500 35500
" />
<text x="48100" y="35750"
textLength="1040" font-size="660" lengthAdjust="spacingAndGlyphs"
text-anchor="end" opacity="0">B6</text>
<path d="M47370 35460
L47450 35480
L47470 35510
L47490 35550
L47490 35630
L47470 35670
L47450 35700
L47400 35720
L47210 35720
L47210 35220
L47370 35220
L47420 35250
L47450 35270
L47470 35320
L47470 35360
L47450 35410
L47420 35440
L47370 35460
L47210 35460
" />
<path d="M47920 35220
L47830 35220
L47780 35250
L47760 35270
L47710 35340
L47680 35440
L47680 35630
L47710 35670
L47730 35700
L47780 35720
L47870 35720
L47920 35700
L47950 35670
L47970 35630
L47970 35510
L47950 35460
L47920 35440
L47870 35410
L47780 35410
L47730 35440
L47710 35460
L47680 35510
" />
<text x="49500" y="35400"
textLength="1010" font-size="660" lengthAdjust="spacingAndGlyphs"
text-anchor="middle" opacity="0">13</text>
<path d="M49400 35370
L49110 35370
" />
<path d="M49260 35370
L49260 34870
L49210 34940
L49160 34990
L49110 35010
" />
<path d="M49570 34870
L49880 34870
L49710 35060
L49780 35060
L49830 35090
L49850 35110
L49880 35160
L49880 35280
L49850 35320
L49830 35350
L49780 35370
L49640 35370
L49590 35350
L49570 35320
" />
<path d="M48500 25500
L50500 25500
" />
<text x="48100" y="25750"
textLength="1580" font-size="660" lengthAdjust="spacingAndGlyphs"
text-anchor="end" opacity="0">GND</text>
<path d="M46920 25250
L46870 25220
L46800 25220
L46730 25250
L46680 25290
L46660 25340
L46640 25440
L46640 25510
L46660 25600
L46680 25650
L46730 25700
L46800 25720
L46850 25720
L46920 25700
L46950 25670
L46950 25510
L46850 25510
" />
<path d="M47160 25720
L47160 25220
L47450 25720
L47450 25220
" />
<path d="M47680 25720
L47680 25220
L47800 25220
L47870 25250
L47920 25290
L47950 25340
L47970 25440
L47970 25510
L47950 25600
L47920 25650
L47870 25700
L47800 25720
L47680 25720
" />
<text x="49500" y="25400"
textLength="1010" font-size="660" lengthAdjust="spacingAndGlyphs"
text-anchor="middle" opacity="0">23</text>
<path d="M49110 24920
L49140 24900
L49190 24870
L49300 24870
L49350 24900
L49380 24920
L49400 24970
L49400 25010
L49380 25090
L49090 25370
L49400 25370
" />
<path d="M49570 24870
L49880 24870
L49710 25060
L49780 25060
L49830 25090
L49850 25110
L49880 25160
L49880 25280
L49850 25320
L49830 25350
L49780 25370
L49640 25370
L49590 25350
L49570 25320
" />
<path d="M48500 34500
L50500 34500
" />
<text x="48100" y="34750"
textLength="1040" font-size="660" lengthAdjust="spacingAndGlyphs"
text-anchor="end" opacity="0">B2</text>
<path d="M47370 34460
L47450 34480
L47470 34510
L47490 34550
L47490 34630
L47470 34670
L47450 34700
L47400 34720
L47210 34720
L47210 34220
L47370 34220
L47420 34250
L47450 34270
L47470 34320
L47470 34360
L47450 34410
L47420 34440
L47370 34460
L47210 34460
" />
<path d="M47680 34270
L47710 34250
L47760 34220
L47870 34220
L47920 34250
L47950 34270
L47970 34320
L47970 34360
L47950 34440
L47660 34720
L47970 34720
" />
<text x="49500" y="34400"
textLength="1010" font-size="660" lengthAdjust="spacingAndGlyphs"
text-anchor="middle" opacity="0">14</text>
<path d="M49400 34370
L49110 34370
" />
<path d="M49260 34370
L49260 33870
L49210 33940
L49160 33990
L49110 34010
" />
<path d="M49830 34040
L49830 34370
" />
<path d="M49710 33850
L49590 34200
L49900 34200
" />
<path d="M48500 24500
L50500 24500
" />
<text x="48100" y="24750"
textLength="1560" font-size="660" lengthAdjust="spacingAndGlyphs"
text-anchor="end" opacity="0">RAW</text>
<path d="M46970 24720
L46800 24480
" />
<path d="M46680 24720
L46680 24220
L46870 24220
L46920 24250
L46950 24270
L46970 24320
L46970 24390
L46950 24440
L46920 24460
L46870 24480
L46680 24480
" />
<path d="M47160 24580
L47400 24580
" />
<path d="M47110 24720
L47280 24220
L47450 24720
" />
<path d="M47570 24220
L47680 24720
L47780 24360
L47870 24720
L47990 24220
" />
<text x="49500" y="24400"
textLength="1010" font-size="660" lengthAdjust="spacingAndGlyphs"
text-anchor="middle" opacity="0">24</text>
<path d="M49110 23920
L49140 23900
L49190 23870
L49300 23870
L49350 23900
L49380 23920
L49400 23970
L49400 24010
L49380 24090
L49090 24370
L49400 24370
" />
<path d="M49830 24040
L49830 24370
" />
<path d="M49710 23850
L49590 24200
L49900 24200
" />
<path d="M48500 33500
L50500 33500
" />
<text x="48100" y="33750"
textLength="1040" font-size="660" lengthAdjust="spacingAndGlyphs"
text-anchor="end" opacity="0">B3</text>
<path d="M47370 33460
L47450 33480
L47470 33510
L47490 33550
L47490 33630
L47470 33670
L47450 33700
L47400 33720
L47210 33720
L47210 33220
L47370 33220
L47420 33250
L47450 33270
L47470 33320
L47470 33360
L47450 33410
L47420 33440
L47370 33460
L47210 33460
" />
<path d="M47660 33220
L47970 33220
L47800 33410
L47870 33410
L47920 33440
L47950 33460
L47970 33510
L47970 33630
L47950 33670
L47920 33700
L47870 33720
L47730 33720
L47680 33700
L47660 33670
" />
<text x="49500" y="33400"
textLength="1010" font-size="660" lengthAdjust="spacingAndGlyphs"
text-anchor="middle" opacity="0">15</text>
<path d="M49400 33370
L49110 33370
" />
<path d="M49260 33370
L49260 32870
L49210 32940
L49160 32990
L49110 33010
" />
<path d="M49850 32870
L49610 32870
L49590 33110
L49610 33090
L49660 33060
L49780 33060
L49830 33090
L49850 33110
L49880 33160
L49880 33280
L49850 33320
L49830 33350
L49780 33370
L49660 33370
L49610 33350
L49590 33320
" />
<path d="M48500 32500
L50500 32500
" />
<text x="48100" y="32750"
textLength="1040" font-size="660" lengthAdjust="spacingAndGlyphs"
text-anchor="end" opacity="0">B1</text>
<path d="M47370 32460
L47450 32480
L47470 32510
L47490 32550
L47490 32630
L47470 32670
L47450 32700
L47400 32720
L47210 32720
L47210 32220
L47370 32220
L47420 32250
L47450 32270
L47470 32320
L47470 32360
L47450 32410
L47420 32440
L47370 32460
L47210 32460
" />
<path d="M47970 32720
L47680 32720
" />
<path d="M47830 32720
L47830 32220
L47780 32290
L47730 32340
L47680 32360
" />
<text x="49500" y="32400"
textLength="1010" font-size="660" lengthAdjust="spacingAndGlyphs"
text-anchor="middle" opacity="0">16</text>
<path d="M49400 32370
L49110 32370
" />
<path d="M49260 32370
L49260 31870
L49210 31940
L49160 31990
L49110 32010
" />
<path d="M49830 31870
L49730 31870
L49690 31900
L49660 31920
L49610 31990
L49590 32090
L49590 32280
L49610 32320
L49640 32350
L49690 32370
L49780 32370
L49830 32350
L49850 32320
L49880 32280
L49880 32160
L49850 32110
L49830 32090
L49780 32060
L49690 32060
L49640 32090
L49610 32110
L49590 32160
" />
<path d="M48500 31500
L50500 31500
" />
<text x="48100" y="31750"
textLength="960" font-size="660" lengthAdjust="spacingAndGlyphs"
text-anchor="end" opacity="0">F7</text>
<path d="M47450 31460
L47280 31460
" />
<path d="M47280 31720
L47280 31220
L47520 31220
" />
<path d="M47660 31220
L47990 31220
L47780 31720
" />
<text x="49500" y="31400"
textLength="1010" font-size="660" lengthAdjust="spacingAndGlyphs"
text-anchor="middle" opacity="0">17</text>
<path d="M49400 31370
L49110 31370
" />
<path d="M49260 31370
L49260 30870
L49210 30940
L49160 30990
L49110 31010
" />
<path d="M49570 30870
L49900 30870
L49690 31370
" />
<path d="M48500 30500
L50500 30500
" />
<text x="48100" y="30750"
textLength="960" font-size="660" lengthAdjust="spacingAndGlyphs"
text-anchor="end" opacity="0">F6</text>
<path d="M47450 30460
L47280 30460
" />
<path d="M47280 30720
L47280 30220
L47520 30220
" />
<path d="M47920 30220
L47830 30220
L47780 30250
L47760 30270
L47710 30340
L47680 30440
L47680 30630
L47710 30670
L47730 30700
L47780 30720
L47870 30720
L47920 30700
L47950 30670
L47970 30630
L47970 30510
L47950 30460
L47920 30440
L47870 30410
L47780 30410
L47730 30440
L47710 30460
L47680 30510
" />
<text x="49500" y="30400"
textLength="1010" font-size="660" lengthAdjust="spacingAndGlyphs"
text-anchor="middle" opacity="0">18</text>
<path d="M49400 30370
L49110 30370
" />
<path d="M49260 30370
L49260 29870
L49210 29940
L49160 29990
L49110 30010
" />
<path d="M49690 30090
L49640 30060
L49610 30040
L49590 29990
L49590 29970
L49610 29920
L49640 29900
L49690 29870
L49780 29870
L49830 29900
L49850 29920
L49880 29970
L49880 29990
L49850 30040
L49830 30060
L49780 30090
L49690 30090
L49640 30110
L49610 30130
L49590 30180
L49590 30280
L49610 30320
L49640 30350
L49690 30370
L49780 30370
L49830 30350
L49850 30320
L49880 30280
L49880 30180
L49850 30130
L49830 30110
L49780 30090
" />
<path d="M48500 29500
L50500 29500
" />
<text x="48100" y="29750"
textLength="960" font-size="660" lengthAdjust="spacingAndGlyphs"
text-anchor="end" opacity="0">F5</text>
<path d="M47450 29460
L47280 29460
" />
<path d="M47280 29720
L47280 29220
L47520 29220
" />
<path d="M47950 29220
L47710 29220
L47680 29460
L47710 29440
L47760 29410
L47870 29410
L47920 29440
L47950 29460
L47970 29510
L47970 29630
L47950 29670
L47920 29700
L47870 29720
L47760 29720
L47710 29700
L47680 29670
" />
<text x="49500" y="29400"
textLength="1010" font-size="660" lengthAdjust="spacingAndGlyphs"
text-anchor="middle" opacity="0">19</text>
<path d="M49400 29370
L49110 29370
" />
<path d="M49260 29370
L49260 28870
L49210 28940
L49160 28990
L49110 29010
" />
<path d="M49640 29370
L49730 29370
L49780 29350
L49800 29320
L49850 29250
L49880 29160
L49880 28970
L49850 28920
L49830 28900
L49780 28870
L49690 28870
L49640 28900
L49610 28920
L49590 28970
L49590 29090
L49610 29130
L49640 29160
L49690 29180
L49780 29180
L49830 29160
L49850 29130
L49880 29090
" />
<text x="43500" y="21960"
textLength="1260" font-size="800" lengthAdjust="spacingAndGlyphs"
text-anchor="middle" opacity="0">U3</text>
<path d="M43040 21330
L43040 21810
L43070 21870
L43100 21900
L43150 21930
L43270 21930
L43320 21900
L43350 21870
L43380 21810
L43380 21330
" />
<path d="M43610 21330
L43980 21330
L43780 21560
L43870 21560
L43920 21580
L43950 21610
L43980 21670
L43980 21810
L43950 21870
L43920 21900
L43870 21930
L43700 21930
L43640 21900
L43610 21870
" />
<text x="43500" y="23020"
textLength="3970" font-size="800" lengthAdjust="spacingAndGlyphs"
text-anchor="middle" opacity="0">ProMicro</text>
<path d="M41680 22990
L41680 22390
L41910 22390
L41970 22420
L42000 22440
L42020 22500
L42020 22590
L42000 22640
L41970 22670
L41910 22700
L41680 22700
" />
<path d="M42280 22990
L42280 22590
" />
<path d="M42280 22700
L42310 22640
L42340 22620
L42400 22590
L42450 22590
" />
<path d="M42740 22990
L42680 22960
L42650 22930
L42620 22870
L42620 22700
L42650 22640
L42680 22620
L42740 22590
L42820 22590
L42880 22620
L42910 22640
L42940 22700
L42940 22870
L42910 22930
L42880 22960
L42820 22990
L42740 22990
" />
<path d="M43200 22990
L43200 22390
L43400 22820
L43600 22390
L43600 22990
" />
<path d="M43880 22990
L43880 22590
" />
<path d="M43880 22390
L43850 22420
L43880 22440
L43910 22420
L43880 22390
L43880 22440
" />
<path d="M44420 22960
L44370 22990
L44250 22990
L44200 22960
L44170 22930
L44140 22870
L44140 22700
L44170 22640
L44200 22620
L44250 22590
L44370 22590
L44420 22620
" />
<path d="M44680 22990
L44680 22590
" />
<path d="M44680 22700
L44710 22640
L44740 22620
L44800 22590
L44850 22590
" />
<path d="M45140 22990
L45080 22960
L45050 22930
L45020 22870
L45020 22700
L45050 22640
L45080 22620
L45140 22590
L45220 22590
L45280 22620
L45310 22640
L45340 22700
L45340 22870
L45310 22930
L45280 22960
L45220 22990
L45140 22990
" />
</g>
</g>
<g style="fill:#000000; fill-opacity:0.0; 
stroke:#000000; stroke-width:0; stroke-opacity:1; 
stroke-linecap:round; stroke-linejoin:round;">
<g >
</g>
<g style="fill:#000000; fill-opacity:0.0; 
stroke:#000000; stroke-width:100; stroke-opacity:1; 
stroke-linecap:round; stroke-linejoin:round;">
<path style="fill:#000000; fill-opacity:0.0; 
stroke:#000000; stroke-width:100; stroke-opacity:1; 
stroke-linecap:round; stroke-linejoin:round;fill:none"
d="M 86500,29500
86500,34500
" /> 
<path style="fill:#000000; fill-opacity:0.0; 
stroke:#000000; stroke-width:100; stroke-opacity:1; 
stroke-linecap:round; stroke-linejoin:round;fill:none"
d="M 86500,34500
90500,34500
" /> 
<path style="fill:#000000; fill-opacity:0.0; 
stroke:#000000; stroke-width:100; stroke-opacity:1; 
stroke-linecap:round; stroke-linejoin:round;fill:none"
d="M 90500,34500
90500,29500
" /> 
<path style="fill:#000000; fill-opacity:0.0; 
stroke:#000000; stroke-width:100; stroke-opacity:1; 
stroke-linecap:round; stroke-linejoin:round;fill:none"
d="M 90500,29500
86500,29500
" /> 
</g>
<g style="fill:#000000; fill-opacity:0.0; 
stroke:#000000; stroke-width:60; stroke-opacity:1; 
stroke-linecap:round; stroke-linejoin:round;">
<path d="M86500 30500
L84500 30500
" />
<text x="86900" y="30700"
textLength="1200" font-size="530" lengthAdjust="spacingAndGlyphs"
text-anchor="start" opacity="0">VCC</text>
<path d="M86960 30280
L87100 30680
L87230 30280
" />
<path d="M87590 30640
L87570 30660
L87520 30680
L87480 30680
L87420 30660
L87380 30620
L87360 30580
L87340 30500
L87340 30450
L87360 30370
L87380 30330
L87420 30300
L87480 30280
L87520 30280
L87570 30300
L87590 30310
" />
<path d="M87990 30640
L87970 30660
L87920 30680
L87880 30680
L87820 30660
L87780 30620
L87760 30580
L87740 30500
L87740 30450
L87760 30370
L87780 30330
L87820 30300
L87880 30280
L87920 30280
L87970 30300
L87990 30310
" />
<text x="85500" y="30400"
textLength="440" font-size="530" lengthAdjust="spacingAndGlyphs"
text-anchor="middle" opacity="0">1</text>
<path d="M85610 30380
L85380 30380
" />
<path d="M85500 30380
L85500 29980
L85460 30030
L85420 30070
L85380 30090
" />
<path d="M86500 33500
L84500 33500
" />
<text x="86900" y="33700"
textLength="1280" font-size="530" lengthAdjust="spacingAndGlyphs"
text-anchor="start" opacity="0">GND</text>
<path d="M87230 33300
L87190 33280
L87130 33280
L87080 33300
L87040 33330
L87020 33370
L87000 33450
L87000 33500
L87020 33580
L87040 33620
L87080 33660
L87130 33680
L87170 33680
L87230 33660
L87250 33640
L87250 33500
L87170 33500
" />
<path d="M87420 33680
L87420 33280
L87650 33680
L87650 33280
" />
<path d="M87840 33680
L87840 33280
L87930 33280
L87990 33300
L88030 33330
L88050 33370
L88070 33450
L88070 33500
L88050 33580
L88030 33620
L87990 33660
L87930 33680
L87840 33680
" />
<text x="85500" y="33400"
textLength="440" font-size="530" lengthAdjust="spacingAndGlyphs"
text-anchor="middle" opacity="0">4</text>
<path d="M85570 33110
L85570 33380
" />
<path d="M85480 32960
L85380 33240
L85630 33240
" />
<path d="M86500 31500
L84500 31500
" />
<text x="86900" y="31700"
textLength="1360" font-size="530" lengthAdjust="spacingAndGlyphs"
text-anchor="start" opacity="0">TRIG</text>
<path d="M86960 31280
L87190 31280
" />
<path d="M87080 31680
L87080 31280
" />
<path d="M87550 31680
L87420 31490
" />
<path d="M87330 31680
L87330 31280
L87480 31280
L87520 31300
L87530 31310
L87550 31350
L87550 31410
L87530 31450
L87520 31470
L87480 31490
L87330 31490
" />
<path d="M87730 31680
L87730 31280
" />
<path d="M88130 31300
L88090 31280
L88030 31280
L87970 31300
L87930 31330
L87920 31370
L87900 31450
L87900 31500
L87920 31580
L87930 31620
L87970 31660
L88030 31680
L88070 31680
L88130 31660
L88140 31640
L88140 31500
L88070 31500
" />
<text x="85500" y="31400"
textLength="440" font-size="530" lengthAdjust="spacingAndGlyphs"
text-anchor="middle" opacity="0">2</text>
<path d="M85380 31010
L85400 31000
L85440 30980
L85530 30980
L85570 31000
L85590 31010
L85610 31050
L85610 31090
L85590 31150
L85360 31380
L85610 31380
" />
<path d="M86500 32500
L84500 32500
" />
<text x="86900" y="32700"
textLength="1660" font-size="530" lengthAdjust="spacingAndGlyphs"
text-anchor="start" opacity="0">ECHO</text>
<path d="M87020 32470
L87150 32470
" />
<path d="M87210 32680
L87020 32680
L87020 32280
L87210 32280
" />
<path d="M87610 32640
L87590 32660
L87530 32680
L87500 32680
L87440 32660
L87400 32620
L87380 32580
L87360 32500
L87360 32450
L87380 32370
L87400 32330
L87440 32300
L87500 32280
L87530 32280
L87590 32300
L87610 32310
" />
<path d="M87780 32680
L87780 32280
" />
<path d="M87780 32470
L88010 32470
" />
<path d="M88010 32680
L88010 32280
" />
<path d="M88280 32280
L88350 32280
L88390 32300
L88430 32330
L88450 32410
L88450 32540
L88430 32620
L88390 32660
L88350 32680
L88280 32680
L88240 32660
L88200 32620
L88180 32540
L88180 32410
L88200 32330
L88240 32300
L88280 32280
" />
<text x="85500" y="32400"
textLength="440" font-size="530" lengthAdjust="spacingAndGlyphs"
text-anchor="middle" opacity="0">3</text>
<path d="M85360 31980
L85610 31980
L85480 32130
L85530 32130
L85570 32150
L85590 32170
L85610 32200
L85610 32300
L85590 32340
L85570 32360
L85530 32380
L85420 32380
L85380 32360
L85360 32340
" />
<text x="91330" y="31810"
textLength="1060" font-size="660" lengthAdjust="spacingAndGlyphs"
text-anchor="middle" opacity="0">U1</text>
<path d="M90940 31280
L90940 31690
L90970 31730
L90990 31760
L91040 31780
L91130 31780
L91180 31760
L91210 31730
L91230 31690
L91230 31280
" />
<path d="M91730 31780
L91440 31780
" />
<path d="M91590 31780
L91590 31280
L91540 31350
L91490 31400
L91440 31420
" />
<text x="92610" y="32720"
textLength="3630" font-size="660" lengthAdjust="spacingAndGlyphs"
text-anchor="middle" opacity="0">HC-SR04</text>
<path d="M90940 32690
L90940 32190
" />
<path d="M90940 32430
L91220 32430
" />
<path d="M91220 32690
L91220 32190
" />
<path d="M91750 32640
L91720 32670
L91650 32690
L91610 32690
L91530 32670
L91490 32620
L91460 32570
L91440 32480
L91440 32410
L91460 32310
L91490 32260
L91530 32220
L91610 32190
L91650 32190
L91720 32220
L91750 32240
" />
<path d="M91960 32500
L92340 32500
" />
<path d="M92560 32670
L92630 32690
L92750 32690
L92800 32670
L92820 32640
L92840 32600
L92840 32550
L92820 32500
L92800 32480
L92750 32450
L92650 32430
L92610 32410
L92580 32380
L92560 32330
L92560 32290
L92580 32240
L92610 32220
L92650 32190
L92770 32190
L92840 32220
" />
<path d="M93340 32690
L93180 32450
" />
<path d="M93060 32690
L93060 32190
L93250 32190
L93300 32220
L93320 32240
L93340 32290
L93340 32360
L93320 32410
L93300 32430
L93250 32450
L93060 32450
" />
<path d="M93650 32190
L93700 32190
L93750 32220
L93770 32240
L93800 32290
L93820 32380
L93820 32500
L93800 32600
L93770 32640
L93750 32670
L93700 32690
L93650 32690
L93610 32670
L93580 32640
L93560 32600
L93530 32500
L93530 32380
L93560 32290
L93580 32240
L93610 32220
L93650 32190
" />
<path d="M94250 32360
L94250 32690
" />
<path d="M94130 32170
L94010 32520
L94320 32520
" />
</g>
</g>
<g style="fill:#000000; fill-opacity:0.0; 
stroke:#000000; stroke-width:0; stroke-opacity:1; 
stroke-linecap:round; stroke-linejoin:round;">
<g >
</g>
<g style="fill:#000000; fill-opacity:0.0; 
stroke:#000000; stroke-width:60; stroke-opacity:1; 
stroke-linecap:round; stroke-linejoin:round;">
<path style="fill:#000000; fill-opacity:0.0; 
stroke:#000000; stroke-width:60; stroke-opacity:1; 
stroke-linecap:round; stroke-linejoin:round;fill:none"
d="M 47500,60800
47000,60500
" /> 
<path style="fill:#000000; fill-opacity:0.0; 
stroke:#000000; stroke-width:60; stroke-opacity:1; 
stroke-linecap:round; stroke-linejoin:round;fill:none"
d="M 48000,60500
47000,60500
" /> 
<path style="fill:#000000; fill-opacity:0.0; 
stroke:#000000; stroke-width:60; stroke-opacity:1; 
stroke-linecap:round; stroke-linejoin:round;fill:none"
d="M 47000,60500
47500,60200
" /> 
<text x="45930" y="60570"
textLength="1580" font-size="660" lengthAdjust="spacingAndGlyphs"
text-anchor="middle" opacity="0">+5V</text>
<path d="M45280 60350
L45660 60350
" />
<path d="M45470 60540
L45470 60160
" />
<path d="M46140 60040
L45900 60040
L45880 60280
L45900 60260
L45950 60230
L46070 60230
L46120 60260
L46140 60280
L46160 60330
L46160 60450
L46140 60490
L46120 60520
L46070 60540
L45950 60540
L45900 60520
L45880 60490
" />
<path d="M46310 60040
L46470 60540
L46640 60040
" />
</g>
</g>
<g style="fill:#000000; fill-opacity:0.0; 
stroke:#000000; stroke-width:0; stroke-opacity:1; 
stroke-linecap:round; stroke-linejoin:round;">
<g >
</g>
<g style="fill:#000000; fill-opacity:0.0; 
stroke:#000000; stroke-width:60; stroke-opacity:1; 
stroke-linecap:round; stroke-linejoin:round;">
<path style="fill:#000000; fill-opacity:0.0; 
stroke:#000000; stroke-width:60; stroke-opacity:1; 
stroke-linecap:round; stroke-linejoin:round;fill:none"
d="M 47250,62250
47250,62750
" /> 
<path style="fill:#000000; fill-opacity:0.0; 
stroke:#000000; stroke-width:60; stroke-opacity:1; 
stroke-linecap:round; stroke-linejoin:round;fill:none"
d="M 47000,62450
47000,62550
" /> 
<path style="fill:#000000; fill-opacity:0.0; 
stroke:#000000; stroke-width:60; stroke-opacity:1; 
stroke-linecap:round; stroke-linejoin:round;fill:none"
d="M 47500,62500
48000,62500
" /> 
<path style="fill:#000000; fill-opacity:0.0; 
stroke:#000000; stroke-width:60; stroke-opacity:1; 
stroke-linecap:round; stroke-linejoin:round;fill:none"
d="M 47500,63000
47500,62000
" /> 
</g>
</g>
<g style="fill:#000000; fill-opacity:0.0; 
stroke:#000000; stroke-width:0; stroke-opacity:1; 
stroke-linecap:round; stroke-linejoin:round;">
<g >
</g>
<g style="fill:#000000; fill-opacity:0.0; 
stroke:#000000; stroke-width:160; stroke-opacity:1; 
stroke-linecap:round; stroke-linejoin:round;">
<circle cx="52000" cy="61500" r="2000" /> 
</g>
<g style="fill:#000000; fill-opacity:0.0; 
stroke:#000000; stroke-width:60; stroke-opacity:1; 
stroke-linecap:round; stroke-linejoin:round;">
<text x="51970" y="62030"
textLength="1200" font-size="1330" lengthAdjust="spacingAndGlyphs"
text-anchor="middle" opacity="0">M</text>
<path d="M51630 61980
L51630 60980
L51970 61690
L52300 60980
L52300 61980
" />
<text x="53490" y="61770"
textLength="540" font-size="660" lengthAdjust="spacingAndGlyphs"
text-anchor="middle" opacity="0">S</text>
<path d="M53340 61720
L53410 61740
L53530 61740
L53580 61720
L53600 61690
L53630 61650
L53630 61600
L53600 61550
L53580 61530
L53530 61500
L53440 61480
L53390 61460
L53370 61430
L53340 61380
L53340 61340
L53370 61290
L53390 61270
L53440 61240
L53560 61240
L53630 61270
" />
<path style="fill:#000000; fill-opacity:0.0; 
stroke:#000000; stroke-width:60; stroke-opacity:1; 
stroke-linecap:round; stroke-linejoin:round;fill:none"
d="M 50000,60500
50300,60500
" /> 
<path style="fill:#000000; fill-opacity:0.0; 
stroke:#000000; stroke-width:60; stroke-opacity:1; 
stroke-linecap:round; stroke-linejoin:round;fill:none"
d="M 50000,62500
50300,62500
" /> 
<path d="M50000 60500
L48000 60500
" />
<text x="49000" y="60400"
textLength="440" font-size="530" lengthAdjust="spacingAndGlyphs"
text-anchor="middle" opacity="0">2</text>
<path d="M48880 60010
L48900 60000
L48940 59980
L49030 59980
L49070 60000
L49090 60010
L49110 60050
L49110 60090
L49090 60150
L48860 60380
L49110 60380
" />
<path d="M50000 62500
L48000 62500
" />
<text x="49000" y="62400"
textLength="440" font-size="530" lengthAdjust="spacingAndGlyphs"
text-anchor="middle" opacity="0">1</text>
<path d="M49110 62380
L48880 62380
" />
<path d="M49000 62380
L49000 61980
L48960 62030
L48920 62070
L48880 62090
" />
<path d="M54000 61500
L56000 61500
" />
<text x="55000" y="61400"
textLength="440" font-size="530" lengthAdjust="spacingAndGlyphs"
text-anchor="middle" opacity="0">3</text>
<path d="M54860 60980
L55110 60980
L54980 61130
L55030 61130
L55070 61150
L55090 61170
L55110 61200
L55110 61300
L55090 61340
L55070 61360
L55030 61380
L54920 61380
L54880 61360
L54860 61340
" />
<path d="M54000 61500
L56000 61500
" />
<text x="55000" y="61400"
textLength="440" font-size="530" lengthAdjust="spacingAndGlyphs"
text-anchor="middle" opacity="0">4</text>
<path d="M55070 61110
L55070 61380
" />
<path d="M54980 60960
L54880 61240
L55130 61240
" />
<path d="M54000 61500
L56000 61500
" />
<text x="55000" y="61400"
textLength="440" font-size="530" lengthAdjust="spacingAndGlyphs"
text-anchor="middle" opacity="0">5</text>
<path d="M55090 60980
L54900 60980
L54880 61170
L54900 61150
L54940 61130
L55030 61130
L55070 61150
L55090 61170
L55110 61200
L55110 61300
L55090 61340
L55070 61360
L55030 61380
L54940 61380
L54900 61360
L54880 61340
" />
<path d="M54000 61500
L56000 61500
" />
<text x="55000" y="61400"
textLength="440" font-size="530" lengthAdjust="spacingAndGlyphs"
text-anchor="middle" opacity="0">6</text>
<path d="M55070 60980
L55000 60980
L54960 61000
L54940 61010
L54900 61070
L54880 61150
L54880 61300
L54900 61340
L54920 61360
L54960 61380
L55030 61380
L55070 61360
L55090 61340
L55110 61300
L55110 61200
L55090 61170
L55070 61150
L55030 61130
L54960 61130
L54920 61150
L54900 61170
L54880 61200
" />
<text x="52000" y="58070"
textLength="1110" font-size="660" lengthAdjust="spacingAndGlyphs"
text-anchor="middle" opacity="0">M1</text>
<path d="M51590 58040
L51590 57540
L51760 57900
L51920 57540
L51920 58040
" />
<path d="M52420 58040
L52140 58040
" />
<path d="M52280 58040
L52280 57540
L52230 57610
L52190 57660
L52140 57680
" />
<text x="52000" y="58980"
textLength="6180" font-size="660" lengthAdjust="spacingAndGlyphs"
text-anchor="middle" opacity="0">Z30C1T8460001</text>
<path d="M49010 58450
L49340 58450
L49010 58950
L49340 58950
" />
<path d="M49480 58450
L49790 58450
L49630 58640
L49700 58640
L49750 58670
L49770 58690
L49790 58740
L49790 58860
L49770 58900
L49750 58930
L49700 58950
L49550 58950
L49510 58930
L49480 58900
" />
<path d="M50100 58450
L50150 58450
L50200 58480
L50220 58500
L50250 58550
L50270 58640
L50270 58760
L50250 58860
L50220 58900
L50200 58930
L50150 58950
L50100 58950
L50050 58930
L50030 58900
L50010 58860
L49980 58760
L49980 58640
L50010 58550
L50030 58500
L50050 58480
L50100 58450
" />
<path d="M50770 58900
L50750 58930
L50670 58950
L50630 58950
L50550 58930
L50510 58880
L50480 58830
L50460 58740
L50460 58670
L50480 58570
L50510 58520
L50550 58480
L50630 58450
L50670 58450
L50750 58480
L50770 58500
" />
<path d="M51250 58950
L50960 58950
" />
<path d="M51100 58950
L51100 58450
L51050 58520
L51010 58570
L50960 58590
" />
<path d="M51390 58450
L51670 58450
" />
<path d="M51530 58950
L51530 58450
" />
<path d="M51910 58670
L51860 58640
L51840 58620
L51820 58570
L51820 58550
L51840 58500
L51860 58480
L51910 58450
L52010 58450
L52050 58480
L52080 58500
L52100 58550
L52100 58570
L52080 58620
L52050 58640
L52010 58670
L51910 58670
L51860 58690
L51840 58710
L51820 58760
L51820 58860
L51840 58900
L51860 58930
L51910 58950
L52010 58950
L52050 58930
L52080 58900
L52100 58860
L52100 58760
L52080 58710
L52050 58690
L52010 58670
" />
<path d="M52530 58620
L52530 58950
" />
<path d="M52410 58430
L52290 58780
L52600 58780
" />
<path d="M53010 58450
L52910 58450
L52860 58480
L52840 58500
L52790 58570
L52770 58670
L52770 58860
L52790 58900
L52820 58930
L52860 58950
L52960 58950
L53010 58930
L53030 58900
L53050 58860
L53050 58740
L53030 58690
L53010 58670
L52960 58640
L52860 58640
L52820 58670
L52790 58690
L52770 58740
" />
<path d="M53360 58450
L53410 58450
L53460 58480
L53480 58500
L53510 58550
L53530 58640
L53530 58760
L53510 58860
L53480 58900
L53460 58930
L53410 58950
L53360 58950
L53320 58930
L53290 58900
L53270 58860
L53250 58760
L53250 58640
L53270 58550
L53290 58500
L53320 58480
L53360 58450
" />
<path d="M53840 58450
L53890 58450
L53940 58480
L53960 58500
L53980 58550
L54010 58640
L54010 58760
L53980 58860
L53960 58900
L53940 58930
L53890 58950
L53840 58950
L53790 58930
L53770 58900
L53750 58860
L53720 58760
L53720 58640
L53750 58550
L53770 58500
L53790 58480
L53840 58450
" />
<path d="M54320 58450
L54360 58450
L54410 58480
L54440 58500
L54460 58550
L54480 58640
L54480 58760
L54460 58860
L54440 58900
L54410 58930
L54360 58950
L54320 58950
L54270 58930
L54250 58900
L54220 58860
L54200 58760
L54200 58640
L54220 58550
L54250 58500
L54270 58480
L54320 58450
" />
<path d="M54960 58950
L54670 58950
" />
<path d="M54820 58950
L54820 58450
L54770 58520
L54720 58570
L54670 58590
" />
</g>
</g>
<g style="fill:#000000; fill-opacity:0.0; 
stroke:#000000; stroke-width:60; stroke-opacity:1; 
stroke-linecap:round; stroke-linejoin:round;">
<path d="M65500 49500
L65500 48500
" />
<path d="M33000 46500
L33000 31500
" />
<path d="M76000 28000
L53500 28000
" />
<path d="M84500 41500
L71000 41500
" />
<path d="M71000 41500
L71000 48500
" />
<path d="M29000 30500
L36500 30500
" />
<path d="M33000 31500
L36500 31500
" />
<path d="M71000 48500
L65500 48500
" />
<path d="M65500 49500
L29000 49500
" />
<path d="M29000 30500
L29000 49500
" />
<path d="M84500 42500
L56500 42500
" />
<path d="M76000 34000
L55500 34000
" />
<path d="M55500 34000
L55500 42500
" />
<path d="M53500 32500
L84500 32500
" />
<path d="M56000 52500
L56000 61500
" />
<path d="M31000 52500
L56000 52500
" />
<path d="M56500 42500
L56500 46500
" />
<path d="M56500 46500
L33000 46500
" />
<path d="M53500 28000
L53500 25500
" />
<path d="M50500 18000
L50500 24500
" />
<path d="M76000 18000
L50500 18000
" />
<path d="M76000 25000
L76000 18000
" />
<path d="M53500 25500
L50500 25500
" />
<path d="M31000 52500
L31000 34500
" />
<path d="M31000 34500
L36500 34500
" />
<path d="M53500 32500
L53500 41000
" />
<path d="M53500 41000
L34500 41000
" />
<path d="M84500 31500
L76000 31500
" />
<path d="M76000 31500
L76000 34000
" />
<path d="M55500 42500
L25500 42500
" />
<path d="M25500 42500
L25500 33500
" />
<path d="M25500 33500
L36500 33500
" />
<path d="M34500 41000
L34500 32500
" />
<path d="M34500 32500
L36500 32500
" />
<path d="M134260 24760
L134740 25240
" />
<path d="M134740 24760
L134260 25240
" />
<path d="M50260 31260
L50740 31740
" />
<path d="M50740 31260
L50260 31740
" />
<path d="M36260 24260
L36740 24740
" />
<path d="M36740 24260
L36260 24740
" />
<path d="M36260 25260
L36740 25740
" />
<path d="M36740 25260
L36260 25740
" />
<path d="M36260 26260
L36740 26740
" />
<path d="M36740 26260
L36260 26740
" />
<path d="M36260 27260
L36740 27740
" />
<path d="M36740 27260
L36260 27740
" />
<path d="M36260 28260
L36740 28740
" />
<path d="M36740 28260
L36260 28740
" />
<path d="M36260 29260
L36740 29740
" />
<path d="M36740 29260
L36260 29740
" />
<path d="M36260 35260
L36740 35740
" />
<path d="M36740 35260
L36260 35740
" />
<path d="M50260 35260
L50740 35740
" />
<path d="M50740 35260
L50260 35740
" />
<path d="M50260 34260
L50740 34740
" />
<path d="M50740 34260
L50260 34740
" />
<path d="M50260 33260
L50740 33740
" />
<path d="M50740 33260
L50260 33740
" />
<path d="M50260 32260
L50740 32740
" />
<path d="M50740 32260
L50260 32740
" />
<path d="M50260 30260
L50740 30740
" />
<path d="M50740 30260
L50260 30740
" />
<path d="M50260 29260
L50740 29740
" />
<path d="M50740 29260
L50260 29740
" />
<path d="M50260 28260
L50740 28740
" />
<path d="M50740 28260
L50260 28740
" />
<path d="M50260 27260
L50740 27740
" />
<path d="M50740 27260
L50260 27740
" />
<path d="M50260 26260
L50740 26740
" />
<path d="M50740 26260
L50260 26740
" />
</g>
<g style="fill:#000000; fill-opacity:0.0; 
stroke:#000000; stroke-width:0; stroke-opacity:1; 
stroke-linecap:round; stroke-linejoin:round;">
</g> 
</svg>
